G75*
G70*
%OFA0B0*%
%FSLAX24Y24*%
%IPPOS*%
%LPD*%
%AMOC8*
5,1,8,0,0,1.08239X$1,22.5*
%
%ADD10C,0.0080*%
%ADD11C,0.0040*%
%ADD12C,0.0030*%
%ADD13C,0.0050*%
%ADD14C,0.0060*%
%ADD15C,0.0020*%
%ADD16C,0.0004*%
%ADD17C,0.0030*%
%ADD18C,0.0240*%
D10*
X002503Y000180D02*
X029003Y000180D01*
X029003Y007180D01*
X027503Y009180D01*
X027503Y021180D01*
X002503Y021180D01*
X002503Y000180D01*
X013503Y000680D02*
X013503Y001680D01*
X019503Y001680D01*
X019503Y000680D01*
X013503Y000680D01*
X020503Y000680D02*
X020503Y001680D01*
X026503Y001680D01*
X026503Y000680D01*
X020503Y000680D01*
X026570Y004420D02*
X027436Y004420D01*
X028263Y005247D02*
X028263Y006113D01*
X027436Y006940D02*
X026570Y006940D01*
X025743Y006113D02*
X025743Y005247D01*
X026334Y005680D02*
X026336Y005731D01*
X026342Y005782D01*
X026352Y005832D01*
X026365Y005882D01*
X026383Y005930D01*
X026403Y005977D01*
X026428Y006022D01*
X026456Y006065D01*
X026487Y006106D01*
X026521Y006144D01*
X026558Y006179D01*
X026597Y006212D01*
X026639Y006242D01*
X026683Y006268D01*
X026729Y006290D01*
X026777Y006310D01*
X026826Y006325D01*
X026876Y006337D01*
X026926Y006345D01*
X026977Y006349D01*
X027029Y006349D01*
X027080Y006345D01*
X027130Y006337D01*
X027180Y006325D01*
X027229Y006310D01*
X027277Y006290D01*
X027323Y006268D01*
X027367Y006242D01*
X027409Y006212D01*
X027448Y006179D01*
X027485Y006144D01*
X027519Y006106D01*
X027550Y006065D01*
X027578Y006022D01*
X027603Y005977D01*
X027623Y005930D01*
X027641Y005882D01*
X027654Y005832D01*
X027664Y005782D01*
X027670Y005731D01*
X027672Y005680D01*
X027670Y005629D01*
X027664Y005578D01*
X027654Y005528D01*
X027641Y005478D01*
X027623Y005430D01*
X027603Y005383D01*
X027578Y005338D01*
X027550Y005295D01*
X027519Y005254D01*
X027485Y005216D01*
X027448Y005181D01*
X027409Y005148D01*
X027367Y005118D01*
X027323Y005092D01*
X027277Y005070D01*
X027229Y005050D01*
X027180Y005035D01*
X027130Y005023D01*
X027080Y005015D01*
X027029Y005011D01*
X026977Y005011D01*
X026926Y005015D01*
X026876Y005023D01*
X026826Y005035D01*
X026777Y005050D01*
X026729Y005070D01*
X026683Y005092D01*
X026639Y005118D01*
X026597Y005148D01*
X026558Y005181D01*
X026521Y005216D01*
X026487Y005254D01*
X026456Y005295D01*
X026428Y005338D01*
X026403Y005383D01*
X026383Y005430D01*
X026365Y005478D01*
X026352Y005528D01*
X026342Y005578D01*
X026336Y005629D01*
X026334Y005680D01*
X026253Y019680D02*
X025753Y019680D01*
X025503Y019930D01*
X025253Y019680D01*
X024753Y019680D01*
X024503Y019930D01*
X024253Y019680D01*
X023753Y019680D01*
X023503Y019930D01*
X023253Y019680D01*
X022753Y019680D01*
X022503Y019930D01*
X022253Y019680D01*
X021753Y019680D01*
X021503Y019930D01*
X021253Y019680D01*
X020753Y019680D01*
X020503Y019930D01*
X020253Y019680D01*
X019753Y019680D01*
X019503Y019930D01*
X019253Y019680D01*
X018753Y019680D01*
X018503Y019930D01*
X018503Y020430D01*
X018753Y020680D01*
X019253Y020680D01*
X019503Y020430D01*
X019753Y020680D01*
X020253Y020680D01*
X020503Y020430D01*
X020753Y020680D01*
X021253Y020680D01*
X021503Y020430D01*
X021753Y020680D01*
X022253Y020680D01*
X022503Y020430D01*
X022753Y020680D01*
X023253Y020680D01*
X023503Y020430D01*
X023753Y020680D01*
X024253Y020680D01*
X024503Y020430D01*
X024753Y020680D01*
X025253Y020680D01*
X025503Y020430D01*
X025753Y020680D01*
X026253Y020680D01*
X026503Y020430D01*
X026503Y019930D01*
X026253Y019680D01*
X018003Y019930D02*
X017753Y019680D01*
X017253Y019680D01*
X017003Y019930D01*
X016753Y019680D01*
X016253Y019680D01*
X016003Y019930D01*
X015753Y019680D01*
X015253Y019680D01*
X015003Y019930D01*
X014753Y019680D01*
X014253Y019680D01*
X014003Y019930D01*
X013753Y019680D01*
X013253Y019680D01*
X013003Y019930D01*
X012753Y019680D01*
X012253Y019680D01*
X012003Y019930D01*
X011753Y019680D01*
X011253Y019680D01*
X011003Y019930D01*
X010753Y019680D01*
X010253Y019680D01*
X010003Y019930D01*
X010003Y020430D01*
X010253Y020680D01*
X010753Y020680D01*
X011003Y020430D01*
X011253Y020680D01*
X011753Y020680D01*
X012003Y020430D01*
X012253Y020680D01*
X012753Y020680D01*
X013003Y020430D01*
X013253Y020680D01*
X013753Y020680D01*
X014003Y020430D01*
X014253Y020680D01*
X014753Y020680D01*
X015003Y020430D01*
X015253Y020680D01*
X015753Y020680D01*
X016003Y020430D01*
X016253Y020680D01*
X016753Y020680D01*
X017003Y020430D01*
X017253Y020680D01*
X017753Y020680D01*
X018003Y020430D01*
X018003Y019930D01*
D11*
X013870Y018296D02*
X013793Y018373D01*
X013640Y018373D01*
X013563Y018296D01*
X013563Y018220D01*
X013640Y018143D01*
X013793Y018143D01*
X013870Y018066D01*
X013870Y017989D01*
X013793Y017913D01*
X013640Y017913D01*
X013563Y017989D01*
X013409Y018143D02*
X013409Y018296D01*
X013333Y018373D01*
X013102Y018373D01*
X013102Y017913D01*
X013102Y018066D02*
X013333Y018066D01*
X013409Y018143D01*
X012949Y018143D02*
X012796Y018143D01*
X012949Y018143D02*
X012949Y017989D01*
X012872Y017913D01*
X012719Y017913D01*
X012642Y017989D01*
X012642Y018296D01*
X012719Y018373D01*
X012872Y018373D01*
X012949Y018296D01*
X010793Y015160D02*
X010563Y014930D01*
X010870Y014930D01*
X010793Y014700D02*
X010793Y015160D01*
X010409Y015084D02*
X010333Y015160D01*
X010179Y015160D01*
X010102Y015084D01*
X010102Y014777D01*
X010179Y014700D01*
X010333Y014700D01*
X010409Y014777D01*
X009949Y014700D02*
X009796Y014700D01*
X009872Y014700D02*
X009872Y015160D01*
X009796Y015160D02*
X009949Y015160D01*
X008787Y012210D02*
X008787Y011750D01*
X008634Y011750D02*
X008941Y011750D01*
X008634Y012057D02*
X008787Y012210D01*
X008480Y012134D02*
X008480Y011980D01*
X008403Y011903D01*
X008173Y011903D01*
X008173Y011750D02*
X008173Y012210D01*
X008403Y012210D01*
X008480Y012134D01*
X008327Y011903D02*
X008480Y011750D01*
X007720Y011750D02*
X007413Y011750D01*
X007720Y012057D01*
X007720Y012134D01*
X007643Y012210D01*
X007490Y012210D01*
X007413Y012134D01*
X007259Y012134D02*
X007259Y011980D01*
X007183Y011903D01*
X006952Y011903D01*
X006952Y011750D02*
X006952Y012210D01*
X007183Y012210D01*
X007259Y012134D01*
X007106Y011903D02*
X007259Y011750D01*
X006883Y011551D02*
X006807Y011628D01*
X006500Y011628D01*
X006423Y011551D01*
X006423Y011321D01*
X006883Y011321D01*
X006883Y011551D01*
X006883Y011167D02*
X006423Y011167D01*
X006423Y010860D02*
X006883Y011167D01*
X006883Y010860D02*
X006423Y010860D01*
X006500Y010707D02*
X006423Y010630D01*
X006423Y010477D01*
X006500Y010400D01*
X006807Y010400D01*
X006883Y010477D01*
X006883Y010630D01*
X006807Y010707D01*
X006653Y010707D01*
X006653Y010553D01*
X006653Y010035D02*
X006653Y009728D01*
X006500Y009881D02*
X006807Y009881D01*
X006883Y009574D02*
X006423Y009574D01*
X006423Y009267D02*
X006883Y009574D01*
X006883Y009267D02*
X006423Y009267D01*
X006423Y009114D02*
X006423Y008960D01*
X006423Y009037D02*
X006883Y009037D01*
X006883Y008960D02*
X006883Y009114D01*
X006730Y008807D02*
X006423Y008807D01*
X006730Y008807D02*
X006883Y008653D01*
X006730Y008500D01*
X006423Y008500D01*
X006653Y008230D02*
X006653Y007923D01*
X007073Y007880D02*
X007150Y007957D01*
X007303Y007957D01*
X007380Y007880D01*
X007380Y007650D01*
X007533Y007650D02*
X007073Y007650D01*
X007073Y007880D01*
X007150Y008110D02*
X007073Y008187D01*
X007073Y008341D01*
X007150Y008417D01*
X007226Y008417D01*
X007303Y008341D01*
X007380Y008417D01*
X007457Y008417D01*
X007533Y008341D01*
X007533Y008187D01*
X007457Y008110D01*
X007533Y007957D02*
X007380Y007803D01*
X007303Y008264D02*
X007303Y008341D01*
X006883Y007309D02*
X006883Y007002D01*
X006807Y007002D01*
X006500Y007309D01*
X006423Y007309D01*
X006423Y007002D01*
X006423Y006848D02*
X006500Y006848D01*
X006807Y006542D01*
X006883Y006542D01*
X006883Y006848D01*
X006423Y006848D02*
X006423Y006542D01*
X006423Y006388D02*
X006807Y006388D01*
X006883Y006311D01*
X006883Y006158D01*
X006807Y006081D01*
X006423Y006081D01*
X006500Y005928D02*
X006576Y005928D01*
X006653Y005851D01*
X006653Y005621D01*
X006653Y005851D02*
X006730Y005928D01*
X006807Y005928D01*
X006883Y005851D01*
X006883Y005621D01*
X006423Y005621D01*
X006423Y005851D01*
X006500Y005928D01*
X006653Y005007D02*
X006653Y004700D01*
X006500Y004853D02*
X006807Y004853D01*
X007852Y004834D02*
X007852Y004527D01*
X007929Y004450D01*
X008083Y004450D01*
X008159Y004527D01*
X008159Y004834D01*
X008083Y004910D01*
X007929Y004910D01*
X007852Y004834D01*
X008006Y004603D02*
X008159Y004450D01*
X008313Y004450D02*
X008620Y004450D01*
X008466Y004450D02*
X008466Y004910D01*
X008313Y004757D01*
X009023Y001660D02*
X009023Y001200D01*
X009330Y001200D01*
X009484Y001200D02*
X009484Y001660D01*
X009637Y001507D01*
X009791Y001660D01*
X009791Y001200D01*
X009944Y001277D02*
X010021Y001200D01*
X010174Y001200D01*
X010251Y001277D01*
X010251Y001353D01*
X010174Y001430D01*
X009944Y001430D01*
X009944Y001277D01*
X009944Y001430D02*
X010098Y001584D01*
X010251Y001660D01*
X010404Y001584D02*
X010481Y001660D01*
X010635Y001660D01*
X010711Y001584D01*
X010404Y001277D01*
X010481Y001200D01*
X010635Y001200D01*
X010711Y001277D01*
X010711Y001584D01*
X010865Y001430D02*
X011172Y001430D01*
X011325Y001430D02*
X011402Y001507D01*
X011555Y001507D01*
X011632Y001430D01*
X011632Y001353D01*
X011325Y001353D01*
X011325Y001277D02*
X011325Y001430D01*
X011325Y001277D02*
X011402Y001200D01*
X011555Y001200D01*
X011786Y001200D02*
X012093Y001507D01*
X012246Y001507D02*
X012399Y001507D01*
X012323Y001584D02*
X012323Y001277D01*
X012399Y001200D01*
X012093Y001200D02*
X011786Y001507D01*
X010404Y001584D02*
X010404Y001277D01*
X026023Y007450D02*
X026330Y007910D01*
X026484Y007757D02*
X026637Y007910D01*
X026637Y007450D01*
X026484Y007450D02*
X026791Y007450D01*
X026330Y007450D02*
X026023Y007910D01*
X026523Y010700D02*
X026677Y010700D01*
X026600Y010700D02*
X026600Y011160D01*
X026523Y011160D02*
X026677Y011160D01*
X026830Y011084D02*
X026830Y010777D01*
X026907Y010700D01*
X027060Y010700D01*
X027137Y010777D01*
X027291Y010777D02*
X027367Y010700D01*
X027521Y010700D01*
X027598Y010777D01*
X027598Y010930D01*
X027521Y011007D01*
X027444Y011007D01*
X027291Y010930D01*
X027291Y011160D01*
X027598Y011160D01*
X027137Y011084D02*
X027060Y011160D01*
X026907Y011160D01*
X026830Y011084D01*
X026833Y013700D02*
X026909Y013777D01*
X026833Y013700D02*
X026679Y013700D01*
X026602Y013777D01*
X026602Y014084D01*
X026679Y014160D01*
X026833Y014160D01*
X026909Y014084D01*
X027063Y014084D02*
X027140Y014160D01*
X027293Y014160D01*
X027370Y014084D01*
X027370Y014007D01*
X027293Y013930D01*
X027370Y013853D01*
X027370Y013777D01*
X027293Y013700D01*
X027140Y013700D01*
X027063Y013777D01*
X027216Y013930D02*
X027293Y013930D01*
X026449Y013700D02*
X026296Y013700D01*
X026372Y013700D02*
X026372Y014160D01*
X026296Y014160D02*
X026449Y014160D01*
X024883Y017500D02*
X024423Y017500D01*
X024653Y017500D02*
X024653Y017807D01*
X024423Y017807D02*
X024883Y017807D01*
X024883Y017960D02*
X024423Y018267D01*
X024576Y018421D02*
X024423Y018574D01*
X024883Y018574D01*
X024883Y018421D02*
X024883Y018728D01*
X024883Y018267D02*
X024423Y017960D01*
D12*
X017888Y014950D02*
X017518Y014950D01*
X017518Y014827D02*
X017518Y015074D01*
X017518Y014705D02*
X017518Y014458D01*
X017888Y014458D01*
X017888Y014705D01*
X017703Y014582D02*
X017703Y014458D01*
X017765Y014337D02*
X017827Y014337D01*
X017888Y014275D01*
X017888Y014152D01*
X017827Y014090D01*
X017888Y013969D02*
X017888Y013722D01*
X017518Y013722D01*
X017518Y013969D01*
X017580Y014090D02*
X017518Y014152D01*
X017518Y014275D01*
X017580Y014337D01*
X017703Y014275D02*
X017765Y014337D01*
X017703Y014275D02*
X017703Y014152D01*
X017641Y014090D01*
X017580Y014090D01*
X017703Y013845D02*
X017703Y013722D01*
X017703Y013600D02*
X017765Y013539D01*
X017765Y013353D01*
X017888Y013353D02*
X017518Y013353D01*
X017518Y013539D01*
X017580Y013600D01*
X017703Y013600D01*
X017765Y013477D02*
X017888Y013600D01*
X012703Y000942D02*
X012518Y000942D01*
X012456Y000880D01*
X012518Y000818D01*
X012641Y000818D01*
X012703Y000757D01*
X012641Y000695D01*
X012456Y000695D01*
X012334Y000818D02*
X012334Y001065D01*
X012088Y001065D02*
X012088Y000818D01*
X012211Y000695D01*
X012334Y000818D01*
X011597Y000757D02*
X011535Y000757D01*
X011535Y000695D01*
X011597Y000695D01*
X011597Y000757D01*
X011597Y000695D02*
X011474Y000572D01*
X011291Y000695D02*
X011352Y000757D01*
X011352Y000880D01*
X011291Y000942D01*
X011167Y000942D01*
X011105Y000880D01*
X011105Y000757D01*
X011167Y000695D01*
X011291Y000695D01*
X010984Y000818D02*
X010984Y001065D01*
X010984Y000818D02*
X010861Y000695D01*
X010737Y000818D01*
X010737Y001065D01*
X010247Y000757D02*
X010185Y000757D01*
X010185Y000695D01*
X010247Y000695D01*
X010247Y000757D01*
X010247Y000695D02*
X010123Y000572D01*
X009940Y000695D02*
X010002Y000757D01*
X010002Y001004D01*
X009940Y001065D01*
X009755Y001065D01*
X009755Y000695D01*
X009940Y000695D01*
X009633Y000695D02*
X009633Y001065D01*
X009387Y001065D02*
X009633Y000695D01*
X009387Y000695D02*
X009387Y001065D01*
X009265Y001004D02*
X009203Y001065D01*
X009080Y001065D01*
X009018Y001004D01*
X009018Y000757D01*
X009080Y000695D01*
X009203Y000695D01*
X009265Y000757D01*
X009265Y000880D01*
X009142Y000880D01*
D13*
X007532Y003143D02*
X007381Y003143D01*
X007306Y003218D01*
X007146Y003143D02*
X006846Y003593D01*
X007146Y003593D02*
X006846Y003143D01*
X007306Y003518D02*
X007381Y003593D01*
X007532Y003593D01*
X007607Y003518D01*
X007607Y003443D01*
X007532Y003368D01*
X007607Y003293D01*
X007607Y003218D01*
X007532Y003143D01*
X007532Y003368D02*
X007457Y003368D01*
X005948Y004691D02*
X005498Y004991D01*
X005723Y005151D02*
X005723Y005451D01*
X005498Y005376D02*
X005723Y005151D01*
X005948Y004991D02*
X005498Y004691D01*
X005498Y005376D02*
X005948Y005376D01*
X003728Y004721D02*
X003728Y004421D01*
X003728Y004571D02*
X003278Y004571D01*
X003428Y004421D01*
X003353Y006371D02*
X003278Y006446D01*
X003278Y006596D01*
X003353Y006671D01*
X003428Y006671D01*
X003728Y006371D01*
X003728Y006671D01*
X003728Y008421D02*
X003728Y008721D01*
X003728Y008571D02*
X003278Y008571D01*
X003428Y008421D01*
X005498Y008691D02*
X005948Y008991D01*
X005948Y009151D02*
X005648Y009451D01*
X005573Y009451D01*
X005498Y009376D01*
X005498Y009226D01*
X005573Y009151D01*
X005498Y008991D02*
X005948Y008691D01*
X005948Y009151D02*
X005948Y009451D01*
X003728Y010371D02*
X003428Y010671D01*
X003353Y010671D01*
X003278Y010596D01*
X003278Y010446D01*
X003353Y010371D01*
X003728Y010371D02*
X003728Y010671D01*
X002503Y012393D02*
X014003Y012393D01*
X014003Y019393D01*
X002503Y019393D01*
X002503Y012393D01*
X008378Y016434D02*
X008378Y016584D01*
X008378Y016509D02*
X008753Y016509D01*
X008828Y016434D01*
X008828Y016359D01*
X008753Y016284D01*
X008753Y016745D02*
X008828Y016745D01*
X008753Y016745D02*
X008453Y017045D01*
X008378Y017045D01*
X008378Y016745D01*
X009444Y016495D02*
X009444Y015865D01*
X010562Y015865D02*
X010562Y016495D01*
X014657Y017130D02*
X014733Y017055D01*
X014883Y017055D01*
X014958Y017130D01*
X014958Y017505D01*
X015118Y017355D02*
X015268Y017505D01*
X015268Y017055D01*
X015118Y017055D02*
X015418Y017055D01*
X014657Y017130D02*
X014657Y017505D01*
X017478Y016095D02*
X017928Y016095D01*
X017928Y015945D02*
X017928Y016245D01*
X017628Y015945D02*
X017478Y016095D01*
X017553Y015784D02*
X017478Y015709D01*
X017478Y015559D01*
X017553Y015484D01*
X017628Y015484D01*
X017703Y015559D01*
X017703Y015709D01*
X017778Y015784D01*
X017853Y015784D01*
X017928Y015709D01*
X017928Y015559D01*
X017853Y015484D01*
X018195Y019137D02*
X023903Y019137D01*
X023903Y002208D01*
X018195Y002208D01*
X018195Y019137D01*
X025407Y017130D02*
X025483Y017055D01*
X025558Y017055D01*
X025633Y017130D01*
X025633Y017505D01*
X025558Y017505D02*
X025708Y017505D01*
X025868Y017280D02*
X026093Y017280D01*
X026168Y017205D01*
X026168Y017130D01*
X026093Y017055D01*
X025943Y017055D01*
X025868Y017130D01*
X025868Y017280D01*
X026018Y017430D01*
X026168Y017505D01*
X026573Y019425D02*
X026648Y019425D01*
X026723Y019500D01*
X026723Y019875D01*
X026648Y019875D02*
X026799Y019875D01*
X026959Y019725D02*
X027109Y019875D01*
X027109Y019425D01*
X026959Y019425D02*
X027259Y019425D01*
X026573Y019425D02*
X026498Y019500D01*
X025944Y015495D02*
X025944Y014865D01*
X027062Y014865D02*
X027062Y015495D01*
X027062Y012495D02*
X027062Y011865D01*
X025944Y011865D02*
X025944Y012495D01*
X025958Y009805D02*
X026108Y009805D01*
X026033Y009805D02*
X026033Y009430D01*
X025958Y009355D01*
X025883Y009355D01*
X025807Y009430D01*
X026268Y009430D02*
X026343Y009355D01*
X026493Y009355D01*
X026568Y009430D01*
X026568Y009505D01*
X026493Y009580D01*
X026343Y009580D01*
X026268Y009655D01*
X026268Y009730D01*
X026343Y009805D01*
X026493Y009805D01*
X026568Y009730D01*
X026568Y009655D01*
X026493Y009580D01*
X026343Y009580D02*
X026268Y009505D01*
X026268Y009430D01*
X015978Y009416D02*
X015978Y009115D01*
X015978Y009266D02*
X015528Y009266D01*
X015678Y009115D01*
X015603Y008955D02*
X015528Y008880D01*
X015528Y008730D01*
X015603Y008655D01*
X015903Y008655D01*
X015978Y008730D01*
X015978Y008880D01*
X015903Y008955D01*
X011868Y008380D02*
X011868Y008305D01*
X011568Y008005D01*
X011868Y008005D01*
X011408Y008080D02*
X011333Y008005D01*
X011183Y008005D01*
X011107Y008080D01*
X011107Y008380D01*
X011183Y008455D01*
X011333Y008455D01*
X011408Y008380D01*
X011568Y008380D02*
X011643Y008455D01*
X011793Y008455D01*
X011868Y008380D01*
X011478Y008730D02*
X011478Y008880D01*
X011403Y008955D01*
X011478Y009115D02*
X011178Y009416D01*
X011103Y009416D01*
X011028Y009341D01*
X011028Y009190D01*
X011103Y009115D01*
X011103Y008955D02*
X011028Y008880D01*
X011028Y008730D01*
X011103Y008655D01*
X011403Y008655D01*
X011478Y008730D01*
X011478Y009115D02*
X011478Y009416D01*
X010951Y008455D02*
X010801Y008455D01*
X010876Y008455D02*
X010876Y008005D01*
X010801Y008005D02*
X010951Y008005D01*
X019848Y000875D02*
X019999Y000875D01*
X019923Y000875D02*
X019923Y000500D01*
X019848Y000425D01*
X019773Y000425D01*
X019698Y000500D01*
X020159Y000650D02*
X020459Y000650D01*
X020384Y000425D02*
X020384Y000875D01*
X020159Y000650D01*
X026637Y000560D02*
X026713Y000485D01*
X026788Y000485D01*
X026863Y000560D01*
X026863Y000935D01*
X026788Y000935D02*
X026938Y000935D01*
X027098Y000860D02*
X027173Y000935D01*
X027323Y000935D01*
X027398Y000860D01*
X027398Y000785D01*
X027098Y000485D01*
X027398Y000485D01*
X005758Y019750D02*
X005758Y019825D01*
X005683Y019900D01*
X005308Y019900D01*
X005308Y019825D02*
X005308Y019975D01*
X005308Y020135D02*
X005533Y020135D01*
X005458Y020286D01*
X005458Y020361D01*
X005533Y020436D01*
X005683Y020436D01*
X005758Y020361D01*
X005758Y020210D01*
X005683Y020135D01*
X005308Y020135D02*
X005308Y020436D01*
X005758Y019750D02*
X005683Y019675D01*
X008998Y020500D02*
X009073Y020425D01*
X009148Y020425D01*
X009223Y020500D01*
X009223Y020875D01*
X009148Y020875D02*
X009299Y020875D01*
X009459Y020800D02*
X009534Y020875D01*
X009684Y020875D01*
X009759Y020800D01*
X009759Y020725D01*
X009684Y020650D01*
X009759Y020575D01*
X009759Y020500D01*
X009684Y020425D01*
X009534Y020425D01*
X009459Y020500D01*
X009609Y020650D02*
X009684Y020650D01*
D14*
X005003Y020430D02*
X005003Y019930D01*
X004753Y019680D01*
X004253Y019680D01*
X004003Y019930D01*
X003753Y019680D01*
X003253Y019680D01*
X003003Y019930D01*
X003003Y020430D01*
X003253Y020680D01*
X003753Y020680D01*
X004003Y020430D01*
X004253Y020680D01*
X004753Y020680D01*
X005003Y020430D01*
X004003Y020430D02*
X004003Y019930D01*
X014803Y015530D02*
X014803Y015180D01*
X014803Y014230D01*
X014803Y013830D01*
X015603Y013480D02*
X015703Y013480D01*
X015703Y013380D01*
X016303Y013380D01*
X016303Y013480D01*
X016403Y013480D01*
X017203Y013830D02*
X017203Y014180D01*
X017203Y015180D01*
X017203Y015530D01*
X016403Y015880D02*
X016303Y015880D01*
X016303Y015980D01*
X015703Y015980D01*
X015703Y015880D01*
X015603Y015880D01*
X015903Y014680D02*
X015905Y014700D01*
X015911Y014718D01*
X015920Y014736D01*
X015932Y014751D01*
X015947Y014763D01*
X015965Y014772D01*
X015983Y014778D01*
X016003Y014780D01*
X016023Y014778D01*
X016041Y014772D01*
X016059Y014763D01*
X016074Y014751D01*
X016086Y014736D01*
X016095Y014718D01*
X016101Y014700D01*
X016103Y014680D01*
X016101Y014660D01*
X016095Y014642D01*
X016086Y014624D01*
X016074Y014609D01*
X016059Y014597D01*
X016041Y014588D01*
X016023Y014582D01*
X016003Y014580D01*
X015983Y014582D01*
X015965Y014588D01*
X015947Y014597D01*
X015932Y014609D01*
X015920Y014624D01*
X015911Y014642D01*
X015905Y014660D01*
X015903Y014680D01*
X015303Y014680D02*
X015305Y014732D01*
X015311Y014784D01*
X015321Y014836D01*
X015334Y014886D01*
X015351Y014936D01*
X015372Y014984D01*
X015397Y015030D01*
X015425Y015074D01*
X015456Y015116D01*
X015490Y015156D01*
X015527Y015193D01*
X015567Y015227D01*
X015609Y015258D01*
X015653Y015286D01*
X015699Y015311D01*
X015747Y015332D01*
X015797Y015349D01*
X015847Y015362D01*
X015899Y015372D01*
X015951Y015378D01*
X016003Y015380D01*
X016055Y015378D01*
X016107Y015372D01*
X016159Y015362D01*
X016209Y015349D01*
X016259Y015332D01*
X016307Y015311D01*
X016353Y015286D01*
X016397Y015258D01*
X016439Y015227D01*
X016479Y015193D01*
X016516Y015156D01*
X016550Y015116D01*
X016581Y015074D01*
X016609Y015030D01*
X016634Y014984D01*
X016655Y014936D01*
X016672Y014886D01*
X016685Y014836D01*
X016695Y014784D01*
X016701Y014732D01*
X016703Y014680D01*
X016701Y014628D01*
X016695Y014576D01*
X016685Y014524D01*
X016672Y014474D01*
X016655Y014424D01*
X016634Y014376D01*
X016609Y014330D01*
X016581Y014286D01*
X016550Y014244D01*
X016516Y014204D01*
X016479Y014167D01*
X016439Y014133D01*
X016397Y014102D01*
X016353Y014074D01*
X016307Y014049D01*
X016259Y014028D01*
X016209Y014011D01*
X016159Y013998D01*
X016107Y013988D01*
X016055Y013982D01*
X016003Y013980D01*
X015951Y013982D01*
X015899Y013988D01*
X015847Y013998D01*
X015797Y014011D01*
X015747Y014028D01*
X015699Y014049D01*
X015653Y014074D01*
X015609Y014102D01*
X015567Y014133D01*
X015527Y014167D01*
X015490Y014204D01*
X015456Y014244D01*
X015425Y014286D01*
X015397Y014330D01*
X015372Y014376D01*
X015351Y014424D01*
X015334Y014474D01*
X015321Y014524D01*
X015311Y014576D01*
X015305Y014628D01*
X015303Y014680D01*
X015693Y017677D02*
X015633Y017697D01*
X015574Y017721D01*
X015517Y017749D01*
X015462Y017780D01*
X015408Y017815D01*
X015357Y017852D01*
X015308Y017893D01*
X015262Y017937D01*
X015218Y017983D01*
X015177Y018032D01*
X015139Y018083D01*
X015105Y018136D01*
X015073Y018192D01*
X015046Y018249D01*
X015021Y018308D01*
X015001Y018368D01*
X014983Y018429D01*
X014970Y018491D01*
X014961Y018554D01*
X014955Y018617D01*
X014953Y018681D01*
X014955Y018745D01*
X014961Y018808D01*
X014970Y018871D01*
X014984Y018933D01*
X015001Y018994D01*
X015022Y019054D01*
X015046Y019113D01*
X015074Y019170D01*
X015106Y019226D01*
X015141Y019279D01*
X015178Y019330D01*
X016828Y019330D01*
X016891Y018780D02*
X017049Y018780D01*
X016116Y018780D02*
X015891Y018780D01*
X016828Y019330D02*
X016865Y019279D01*
X016900Y019226D01*
X016932Y019170D01*
X016960Y019113D01*
X016984Y019054D01*
X017005Y018994D01*
X017022Y018933D01*
X017036Y018871D01*
X017045Y018808D01*
X017051Y018745D01*
X017053Y018681D01*
X017051Y018617D01*
X017045Y018554D01*
X017036Y018491D01*
X017023Y018429D01*
X017005Y018368D01*
X016985Y018308D01*
X016960Y018249D01*
X016933Y018192D01*
X016901Y018136D01*
X016867Y018083D01*
X016829Y018032D01*
X016788Y017983D01*
X016744Y017937D01*
X016698Y017893D01*
X016649Y017852D01*
X016598Y017815D01*
X016544Y017780D01*
X016489Y017749D01*
X016432Y017721D01*
X016373Y017697D01*
X016313Y017677D01*
X015116Y018780D02*
X014958Y018780D01*
X006153Y012146D02*
X005213Y012146D01*
X002613Y012146D01*
X002613Y008216D01*
X002533Y008216D01*
X002533Y012146D01*
X002613Y012146D01*
X002933Y011166D02*
X002935Y011194D01*
X002941Y011221D01*
X002950Y011247D01*
X002963Y011272D01*
X002980Y011295D01*
X002999Y011315D01*
X003021Y011332D01*
X003045Y011346D01*
X003071Y011356D01*
X003098Y011363D01*
X003126Y011366D01*
X003154Y011365D01*
X003181Y011360D01*
X003208Y011351D01*
X003233Y011339D01*
X003256Y011324D01*
X003277Y011305D01*
X003295Y011284D01*
X003310Y011260D01*
X003321Y011234D01*
X003329Y011208D01*
X003333Y011180D01*
X003333Y011152D01*
X003329Y011124D01*
X003321Y011098D01*
X003310Y011072D01*
X003295Y011048D01*
X003277Y011027D01*
X003256Y011008D01*
X003233Y010993D01*
X003208Y010981D01*
X003181Y010972D01*
X003154Y010967D01*
X003126Y010966D01*
X003098Y010969D01*
X003071Y010976D01*
X003045Y010986D01*
X003021Y011000D01*
X002999Y011017D01*
X002980Y011037D01*
X002963Y011060D01*
X002950Y011085D01*
X002941Y011111D01*
X002935Y011138D01*
X002933Y011166D01*
X005213Y011516D02*
X005213Y012146D01*
X006153Y012146D02*
X006153Y008216D01*
X005213Y008216D01*
X002613Y008216D01*
X002613Y008146D02*
X005213Y008146D01*
X006153Y008146D01*
X006153Y004216D01*
X005213Y004216D01*
X002613Y004216D01*
X002533Y004216D01*
X002533Y008146D01*
X002613Y008146D01*
X002613Y004216D01*
X002552Y003838D02*
X002552Y002898D01*
X002552Y000298D01*
X008452Y000298D01*
X008452Y000218D01*
X002552Y000218D01*
X002552Y000298D01*
X003332Y000818D02*
X003334Y000846D01*
X003340Y000873D01*
X003349Y000899D01*
X003362Y000924D01*
X003379Y000947D01*
X003398Y000967D01*
X003420Y000984D01*
X003444Y000998D01*
X003470Y001008D01*
X003497Y001015D01*
X003525Y001018D01*
X003553Y001017D01*
X003580Y001012D01*
X003607Y001003D01*
X003632Y000991D01*
X003655Y000976D01*
X003676Y000957D01*
X003694Y000936D01*
X003709Y000912D01*
X003720Y000886D01*
X003728Y000860D01*
X003732Y000832D01*
X003732Y000804D01*
X003728Y000776D01*
X003720Y000750D01*
X003709Y000724D01*
X003694Y000700D01*
X003676Y000679D01*
X003655Y000660D01*
X003632Y000645D01*
X003607Y000633D01*
X003580Y000624D01*
X003553Y000619D01*
X003525Y000618D01*
X003497Y000621D01*
X003470Y000628D01*
X003444Y000638D01*
X003420Y000652D01*
X003398Y000669D01*
X003379Y000689D01*
X003362Y000712D01*
X003349Y000737D01*
X003340Y000763D01*
X003334Y000790D01*
X003332Y000818D01*
X005302Y000818D02*
X005304Y000846D01*
X005310Y000873D01*
X005319Y000899D01*
X005332Y000924D01*
X005349Y000947D01*
X005368Y000967D01*
X005390Y000984D01*
X005414Y000998D01*
X005440Y001008D01*
X005467Y001015D01*
X005495Y001018D01*
X005523Y001017D01*
X005550Y001012D01*
X005577Y001003D01*
X005602Y000991D01*
X005625Y000976D01*
X005646Y000957D01*
X005664Y000936D01*
X005679Y000912D01*
X005690Y000886D01*
X005698Y000860D01*
X005702Y000832D01*
X005702Y000804D01*
X005698Y000776D01*
X005690Y000750D01*
X005679Y000724D01*
X005664Y000700D01*
X005646Y000679D01*
X005625Y000660D01*
X005602Y000645D01*
X005577Y000633D01*
X005550Y000624D01*
X005523Y000619D01*
X005495Y000618D01*
X005467Y000621D01*
X005440Y000628D01*
X005414Y000638D01*
X005390Y000652D01*
X005368Y000669D01*
X005349Y000689D01*
X005332Y000712D01*
X005319Y000737D01*
X005310Y000763D01*
X005304Y000790D01*
X005302Y000818D01*
X007272Y000818D02*
X007274Y000846D01*
X007280Y000873D01*
X007289Y000899D01*
X007302Y000924D01*
X007319Y000947D01*
X007338Y000967D01*
X007360Y000984D01*
X007384Y000998D01*
X007410Y001008D01*
X007437Y001015D01*
X007465Y001018D01*
X007493Y001017D01*
X007520Y001012D01*
X007547Y001003D01*
X007572Y000991D01*
X007595Y000976D01*
X007616Y000957D01*
X007634Y000936D01*
X007649Y000912D01*
X007660Y000886D01*
X007668Y000860D01*
X007672Y000832D01*
X007672Y000804D01*
X007668Y000776D01*
X007660Y000750D01*
X007649Y000724D01*
X007634Y000700D01*
X007616Y000679D01*
X007595Y000660D01*
X007572Y000645D01*
X007547Y000633D01*
X007520Y000624D01*
X007493Y000619D01*
X007465Y000618D01*
X007437Y000621D01*
X007410Y000628D01*
X007384Y000638D01*
X007360Y000652D01*
X007338Y000669D01*
X007319Y000689D01*
X007302Y000712D01*
X007289Y000737D01*
X007280Y000763D01*
X007274Y000790D01*
X007272Y000818D01*
X008452Y000298D02*
X008452Y002898D01*
X007822Y002898D01*
X008452Y002898D02*
X008452Y003838D01*
X002552Y003838D01*
X002552Y002898D02*
X003182Y002898D01*
X003882Y002898D02*
X005152Y002898D01*
X005852Y002898D02*
X007122Y002898D01*
X005213Y004216D02*
X005213Y004846D01*
X005213Y005546D02*
X005213Y006816D01*
X005213Y007516D02*
X005213Y008146D01*
X005213Y008216D02*
X005213Y008846D01*
X005213Y009546D02*
X005213Y010816D01*
X002933Y009196D02*
X002935Y009224D01*
X002941Y009251D01*
X002950Y009277D01*
X002963Y009302D01*
X002980Y009325D01*
X002999Y009345D01*
X003021Y009362D01*
X003045Y009376D01*
X003071Y009386D01*
X003098Y009393D01*
X003126Y009396D01*
X003154Y009395D01*
X003181Y009390D01*
X003208Y009381D01*
X003233Y009369D01*
X003256Y009354D01*
X003277Y009335D01*
X003295Y009314D01*
X003310Y009290D01*
X003321Y009264D01*
X003329Y009238D01*
X003333Y009210D01*
X003333Y009182D01*
X003329Y009154D01*
X003321Y009128D01*
X003310Y009102D01*
X003295Y009078D01*
X003277Y009057D01*
X003256Y009038D01*
X003233Y009023D01*
X003208Y009011D01*
X003181Y009002D01*
X003154Y008997D01*
X003126Y008996D01*
X003098Y008999D01*
X003071Y009006D01*
X003045Y009016D01*
X003021Y009030D01*
X002999Y009047D01*
X002980Y009067D01*
X002963Y009090D01*
X002950Y009115D01*
X002941Y009141D01*
X002935Y009168D01*
X002933Y009196D01*
X002933Y007166D02*
X002935Y007194D01*
X002941Y007221D01*
X002950Y007247D01*
X002963Y007272D01*
X002980Y007295D01*
X002999Y007315D01*
X003021Y007332D01*
X003045Y007346D01*
X003071Y007356D01*
X003098Y007363D01*
X003126Y007366D01*
X003154Y007365D01*
X003181Y007360D01*
X003208Y007351D01*
X003233Y007339D01*
X003256Y007324D01*
X003277Y007305D01*
X003295Y007284D01*
X003310Y007260D01*
X003321Y007234D01*
X003329Y007208D01*
X003333Y007180D01*
X003333Y007152D01*
X003329Y007124D01*
X003321Y007098D01*
X003310Y007072D01*
X003295Y007048D01*
X003277Y007027D01*
X003256Y007008D01*
X003233Y006993D01*
X003208Y006981D01*
X003181Y006972D01*
X003154Y006967D01*
X003126Y006966D01*
X003098Y006969D01*
X003071Y006976D01*
X003045Y006986D01*
X003021Y007000D01*
X002999Y007017D01*
X002980Y007037D01*
X002963Y007060D01*
X002950Y007085D01*
X002941Y007111D01*
X002935Y007138D01*
X002933Y007166D01*
X002933Y005196D02*
X002935Y005224D01*
X002941Y005251D01*
X002950Y005277D01*
X002963Y005302D01*
X002980Y005325D01*
X002999Y005345D01*
X003021Y005362D01*
X003045Y005376D01*
X003071Y005386D01*
X003098Y005393D01*
X003126Y005396D01*
X003154Y005395D01*
X003181Y005390D01*
X003208Y005381D01*
X003233Y005369D01*
X003256Y005354D01*
X003277Y005335D01*
X003295Y005314D01*
X003310Y005290D01*
X003321Y005264D01*
X003329Y005238D01*
X003333Y005210D01*
X003333Y005182D01*
X003329Y005154D01*
X003321Y005128D01*
X003310Y005102D01*
X003295Y005078D01*
X003277Y005057D01*
X003256Y005038D01*
X003233Y005023D01*
X003208Y005011D01*
X003181Y005002D01*
X003154Y004997D01*
X003126Y004996D01*
X003098Y004999D01*
X003071Y005006D01*
X003045Y005016D01*
X003021Y005030D01*
X002999Y005047D01*
X002980Y005067D01*
X002963Y005090D01*
X002950Y005115D01*
X002941Y005141D01*
X002935Y005168D01*
X002933Y005196D01*
X011903Y009630D02*
X012003Y009630D01*
X012003Y009730D01*
X012003Y009630D02*
X012103Y009630D01*
X012003Y009630D02*
X012003Y009530D01*
X011503Y010180D02*
X011505Y010243D01*
X011511Y010305D01*
X011521Y010367D01*
X011534Y010429D01*
X011552Y010489D01*
X011573Y010548D01*
X011598Y010606D01*
X011627Y010662D01*
X011659Y010716D01*
X011694Y010768D01*
X011732Y010817D01*
X011774Y010865D01*
X011818Y010909D01*
X011866Y010951D01*
X011915Y010989D01*
X011967Y011024D01*
X012021Y011056D01*
X012077Y011085D01*
X012135Y011110D01*
X012194Y011131D01*
X012254Y011149D01*
X012316Y011162D01*
X012378Y011172D01*
X012440Y011178D01*
X012503Y011180D01*
X012566Y011178D01*
X012628Y011172D01*
X012690Y011162D01*
X012752Y011149D01*
X012812Y011131D01*
X012871Y011110D01*
X012929Y011085D01*
X012985Y011056D01*
X013039Y011024D01*
X013091Y010989D01*
X013140Y010951D01*
X013188Y010909D01*
X013232Y010865D01*
X013274Y010817D01*
X013312Y010768D01*
X013347Y010716D01*
X013379Y010662D01*
X013408Y010606D01*
X013433Y010548D01*
X013454Y010489D01*
X013472Y010429D01*
X013485Y010367D01*
X013495Y010305D01*
X013501Y010243D01*
X013503Y010180D01*
X013501Y010117D01*
X013495Y010055D01*
X013485Y009993D01*
X013472Y009931D01*
X013454Y009871D01*
X013433Y009812D01*
X013408Y009754D01*
X013379Y009698D01*
X013347Y009644D01*
X013312Y009592D01*
X013274Y009543D01*
X013232Y009495D01*
X013188Y009451D01*
X013140Y009409D01*
X013091Y009371D01*
X013039Y009336D01*
X012985Y009304D01*
X012929Y009275D01*
X012871Y009250D01*
X012812Y009229D01*
X012752Y009211D01*
X012690Y009198D01*
X012628Y009188D01*
X012566Y009182D01*
X012503Y009180D01*
X012440Y009182D01*
X012378Y009188D01*
X012316Y009198D01*
X012254Y009211D01*
X012194Y009229D01*
X012135Y009250D01*
X012077Y009275D01*
X012021Y009304D01*
X011967Y009336D01*
X011915Y009371D01*
X011866Y009409D01*
X011818Y009451D01*
X011774Y009495D01*
X011732Y009543D01*
X011694Y009592D01*
X011659Y009644D01*
X011627Y009698D01*
X011598Y009754D01*
X011573Y009812D01*
X011552Y009871D01*
X011534Y009931D01*
X011521Y009993D01*
X011511Y010055D01*
X011505Y010117D01*
X011503Y010180D01*
X013903Y009630D02*
X014003Y009630D01*
X014003Y009730D01*
X014003Y009630D02*
X014103Y009630D01*
X014003Y009630D02*
X014003Y009530D01*
X013503Y010180D02*
X013505Y010243D01*
X013511Y010305D01*
X013521Y010367D01*
X013534Y010429D01*
X013552Y010489D01*
X013573Y010548D01*
X013598Y010606D01*
X013627Y010662D01*
X013659Y010716D01*
X013694Y010768D01*
X013732Y010817D01*
X013774Y010865D01*
X013818Y010909D01*
X013866Y010951D01*
X013915Y010989D01*
X013967Y011024D01*
X014021Y011056D01*
X014077Y011085D01*
X014135Y011110D01*
X014194Y011131D01*
X014254Y011149D01*
X014316Y011162D01*
X014378Y011172D01*
X014440Y011178D01*
X014503Y011180D01*
X014566Y011178D01*
X014628Y011172D01*
X014690Y011162D01*
X014752Y011149D01*
X014812Y011131D01*
X014871Y011110D01*
X014929Y011085D01*
X014985Y011056D01*
X015039Y011024D01*
X015091Y010989D01*
X015140Y010951D01*
X015188Y010909D01*
X015232Y010865D01*
X015274Y010817D01*
X015312Y010768D01*
X015347Y010716D01*
X015379Y010662D01*
X015408Y010606D01*
X015433Y010548D01*
X015454Y010489D01*
X015472Y010429D01*
X015485Y010367D01*
X015495Y010305D01*
X015501Y010243D01*
X015503Y010180D01*
X015501Y010117D01*
X015495Y010055D01*
X015485Y009993D01*
X015472Y009931D01*
X015454Y009871D01*
X015433Y009812D01*
X015408Y009754D01*
X015379Y009698D01*
X015347Y009644D01*
X015312Y009592D01*
X015274Y009543D01*
X015232Y009495D01*
X015188Y009451D01*
X015140Y009409D01*
X015091Y009371D01*
X015039Y009336D01*
X014985Y009304D01*
X014929Y009275D01*
X014871Y009250D01*
X014812Y009229D01*
X014752Y009211D01*
X014690Y009198D01*
X014628Y009188D01*
X014566Y009182D01*
X014503Y009180D01*
X014440Y009182D01*
X014378Y009188D01*
X014316Y009198D01*
X014254Y009211D01*
X014194Y009229D01*
X014135Y009250D01*
X014077Y009275D01*
X014021Y009304D01*
X013967Y009336D01*
X013915Y009371D01*
X013866Y009409D01*
X013818Y009451D01*
X013774Y009495D01*
X013732Y009543D01*
X013694Y009592D01*
X013659Y009644D01*
X013627Y009698D01*
X013598Y009754D01*
X013573Y009812D01*
X013552Y009871D01*
X013534Y009931D01*
X013521Y009993D01*
X013511Y010055D01*
X013505Y010117D01*
X013503Y010180D01*
X012273Y007861D02*
X014733Y007861D01*
X014733Y006499D01*
X012273Y006499D01*
X012273Y007861D01*
D15*
X014803Y014230D02*
X014903Y014230D01*
X014903Y015180D01*
X014803Y015180D01*
X017103Y015180D02*
X017103Y014180D01*
X017203Y014180D01*
X017203Y015180D02*
X017103Y015180D01*
D16*
X010003Y016688D02*
X010003Y016692D01*
X026503Y015688D02*
X026503Y015692D01*
X026503Y011672D02*
X026503Y011668D01*
D17*
X026003Y011920D02*
X026003Y012436D01*
X027007Y012436D01*
X027007Y011920D01*
X026003Y011920D01*
X025999Y014924D02*
X025999Y015440D01*
X027003Y015440D01*
X027003Y014924D01*
X025999Y014924D01*
X010503Y015924D02*
X010503Y016440D01*
X009499Y016440D01*
X009499Y015924D01*
X010503Y015924D01*
D18*
X008003Y015650D02*
X008003Y016710D01*
X025273Y016880D02*
X026333Y016880D01*
X026233Y010180D02*
X025173Y010180D01*
M02*
