G75*
G70*
%OFA0B0*%
%FSLAX24Y24*%
%IPPOS*%
%LPD*%
%AMOC8*
5,1,8,0,0,1.08239X$1,22.5*
%
%ADD10C,0.0080*%
%ADD11C,0.0040*%
D10*
X002503Y000180D02*
X029003Y000180D01*
X029003Y007180D01*
X027503Y009180D01*
X027503Y021180D01*
X002503Y021180D01*
X002503Y000180D01*
X023043Y003027D02*
X023964Y003027D01*
X023964Y002720D02*
X023964Y003334D01*
X023657Y003641D02*
X023043Y003641D01*
X023350Y003641D02*
X023657Y003948D01*
X023657Y004101D01*
X023197Y004408D02*
X023350Y004562D01*
X023350Y005022D01*
X023504Y005022D02*
X023657Y004869D01*
X023657Y004562D01*
X023197Y004408D02*
X023043Y004562D01*
X023043Y005022D01*
X023504Y005022D01*
X023504Y005329D02*
X023197Y005329D01*
X023043Y005482D01*
X023043Y005943D01*
X023043Y006250D02*
X023964Y006250D01*
X023657Y005943D02*
X023657Y005482D01*
X023504Y005329D01*
X023350Y006250D02*
X023657Y006710D01*
X023657Y007017D02*
X023197Y007017D01*
X023043Y007170D01*
X023043Y007631D01*
X023657Y007631D01*
X023657Y007938D02*
X023657Y008091D01*
X023043Y008091D01*
X023043Y007938D02*
X023043Y008245D01*
X023043Y008552D02*
X023657Y008552D01*
X023657Y009012D01*
X023504Y009166D01*
X023043Y009166D01*
X023197Y009472D02*
X023043Y009626D01*
X023043Y009933D01*
X023197Y010086D01*
X023504Y010086D01*
X023657Y009933D01*
X023657Y009626D01*
X023504Y009472D01*
X023197Y009472D01*
X023964Y008091D02*
X024118Y008091D01*
X023043Y006710D02*
X023350Y006250D01*
X023197Y011314D02*
X023043Y011467D01*
X023043Y011774D01*
X023197Y011928D01*
X023350Y011928D01*
X023504Y011774D01*
X023504Y011467D01*
X023657Y011314D01*
X023811Y011314D01*
X023964Y011467D01*
X023964Y011774D01*
X023811Y011928D01*
X023964Y012235D02*
X023043Y012235D01*
X023504Y012235D02*
X023657Y012388D01*
X023657Y012695D01*
X023504Y012849D01*
X023043Y012849D01*
X023043Y013156D02*
X023043Y013463D01*
X023043Y013309D02*
X023657Y013309D01*
X023657Y013156D01*
X023964Y013309D02*
X024118Y013309D01*
X023504Y013769D02*
X023657Y013923D01*
X023657Y014230D01*
X023504Y014383D01*
X023350Y014383D01*
X023350Y013769D01*
X023197Y013769D02*
X023504Y013769D01*
X023197Y013769D02*
X023043Y013923D01*
X023043Y014230D01*
X023043Y014690D02*
X023043Y014997D01*
X023043Y014844D02*
X023964Y014844D01*
X023964Y014690D01*
X023504Y015304D02*
X023197Y015304D01*
X023043Y015458D01*
X023043Y015918D01*
X023964Y015918D01*
X023657Y015918D02*
X023657Y015458D01*
X023504Y015304D01*
X023811Y017146D02*
X023964Y017299D01*
X023964Y017606D01*
X023811Y017760D01*
X023657Y017760D01*
X023043Y017146D01*
X023043Y017760D01*
X023043Y018066D02*
X023043Y018220D01*
X023197Y018220D01*
X023197Y018066D01*
X023043Y018066D01*
X023043Y018527D02*
X023657Y019141D01*
X023811Y019141D01*
X023964Y018987D01*
X023964Y018680D01*
X023811Y018527D01*
X023043Y018527D02*
X023043Y019141D01*
D11*
X019984Y017433D02*
X019984Y017126D01*
X019753Y017126D01*
X019830Y017279D01*
X019830Y017356D01*
X019753Y017433D01*
X019600Y017433D01*
X019523Y017356D01*
X019523Y017202D01*
X019600Y017126D01*
X019600Y016972D02*
X019523Y016895D01*
X019523Y016742D01*
X019600Y016665D01*
X019907Y016665D01*
X019984Y016742D01*
X019984Y016895D01*
X019907Y016972D01*
X019984Y016512D02*
X019984Y016358D01*
X019984Y016435D02*
X019523Y016435D01*
X019523Y016358D02*
X019523Y016512D01*
X020523Y015898D02*
X020984Y015898D01*
X020753Y015668D01*
X020753Y015975D01*
X020600Y015514D02*
X020523Y015438D01*
X020523Y015284D01*
X020600Y015207D01*
X020907Y015207D01*
X020984Y015284D01*
X020984Y015438D01*
X020907Y015514D01*
X020984Y015054D02*
X020984Y014900D01*
X020984Y014977D02*
X020523Y014977D01*
X020523Y014900D02*
X020523Y015054D01*
X019984Y015207D02*
X019984Y015361D01*
X019907Y015438D01*
X019830Y015438D01*
X019753Y015361D01*
X019677Y015438D01*
X019600Y015438D01*
X019523Y015361D01*
X019523Y015207D01*
X019600Y015131D01*
X019600Y014977D02*
X019523Y014900D01*
X019523Y014747D01*
X019600Y014670D01*
X019907Y014670D01*
X019984Y014747D01*
X019984Y014900D01*
X019907Y014977D01*
X019907Y015131D02*
X019984Y015207D01*
X019753Y015284D02*
X019753Y015361D01*
X019370Y015591D02*
X019523Y015744D01*
X019523Y015668D01*
X019600Y015668D01*
X019600Y015744D01*
X019523Y015744D01*
X018330Y015821D02*
X018023Y015821D01*
X018023Y015591D01*
X018100Y015514D01*
X018330Y015514D01*
X018253Y015361D02*
X018330Y015284D01*
X018330Y015054D01*
X018484Y015054D02*
X018023Y015054D01*
X018023Y015284D01*
X018100Y015361D01*
X018253Y015361D01*
X018253Y014900D02*
X018177Y014900D01*
X018177Y014593D01*
X018253Y014593D02*
X018330Y014670D01*
X018330Y014824D01*
X018253Y014900D01*
X018023Y014824D02*
X018023Y014670D01*
X018100Y014593D01*
X018253Y014593D01*
X018330Y014440D02*
X018330Y014210D01*
X018253Y014133D01*
X018100Y014133D01*
X018023Y014210D01*
X018023Y014440D01*
X018484Y014440D01*
X019523Y014440D02*
X019984Y014440D01*
X019984Y014363D02*
X019984Y014517D01*
X020523Y014287D02*
X020753Y014287D01*
X020830Y014210D01*
X020830Y013980D01*
X020523Y013980D01*
X020600Y013826D02*
X020753Y013826D01*
X020830Y013749D01*
X020830Y013596D01*
X020753Y013519D01*
X020600Y013519D01*
X020523Y013596D01*
X020523Y013749D01*
X020600Y013826D01*
X019830Y013673D02*
X019830Y013442D01*
X019523Y013442D01*
X019600Y013289D02*
X019753Y013289D01*
X019830Y013212D01*
X019830Y013059D01*
X019753Y012982D01*
X019600Y012982D01*
X019523Y013059D01*
X019523Y013212D01*
X019600Y013289D01*
X019830Y013673D02*
X019753Y013749D01*
X019523Y013749D01*
X019523Y014363D02*
X019523Y014517D01*
X018023Y013519D02*
X018023Y013366D01*
X018023Y013442D02*
X018484Y013442D01*
X018484Y013366D01*
X018330Y013136D02*
X018253Y013212D01*
X018023Y013212D01*
X018023Y012982D01*
X018100Y012905D01*
X018177Y012982D01*
X018177Y013212D01*
X018330Y013136D02*
X018330Y012982D01*
X018330Y012675D02*
X018023Y012675D01*
X018023Y012598D02*
X018023Y012752D01*
X018330Y012675D02*
X018330Y012598D01*
X018330Y012445D02*
X018330Y012368D01*
X018177Y012215D01*
X018330Y012215D02*
X018023Y012215D01*
X018177Y012061D02*
X018177Y011754D01*
X018253Y011754D02*
X018330Y011831D01*
X018330Y011985D01*
X018253Y012061D01*
X018177Y012061D01*
X018023Y011985D02*
X018023Y011831D01*
X018100Y011754D01*
X018253Y011754D01*
X018330Y011601D02*
X018330Y011371D01*
X018253Y011294D01*
X018177Y011371D01*
X018177Y011524D01*
X018100Y011601D01*
X018023Y011524D01*
X018023Y011294D01*
X018177Y011141D02*
X018177Y010834D01*
X018330Y010834D02*
X018330Y011141D01*
X018253Y010680D02*
X018023Y010680D01*
X018253Y010680D02*
X018330Y010603D01*
X018330Y010373D01*
X018023Y010373D01*
X018177Y010220D02*
X018177Y009913D01*
X018253Y009913D02*
X018330Y009990D01*
X018330Y010143D01*
X018253Y010220D01*
X018177Y010220D01*
X018023Y010143D02*
X018023Y009990D01*
X018100Y009913D01*
X018253Y009913D01*
X018253Y009759D02*
X018100Y009759D01*
X018023Y009683D01*
X018023Y009452D01*
X017870Y009452D02*
X018330Y009452D01*
X018330Y009683D01*
X018253Y009759D01*
X018253Y009299D02*
X018330Y009222D01*
X018330Y009069D01*
X018253Y008992D01*
X018100Y008992D01*
X018023Y009069D01*
X018023Y009222D01*
X018100Y009299D01*
X018253Y009299D01*
X018100Y008378D02*
X018100Y008301D01*
X018023Y008301D01*
X018023Y008378D01*
X018100Y008378D01*
X018023Y008378D02*
X017870Y008225D01*
X018100Y008071D02*
X018023Y007995D01*
X018023Y007841D01*
X018100Y007764D01*
X018253Y007841D02*
X018253Y007995D01*
X018177Y008071D01*
X018100Y008071D01*
X018253Y007841D02*
X018330Y007764D01*
X018407Y007764D01*
X018484Y007841D01*
X018484Y007995D01*
X018407Y008071D01*
X018407Y007611D02*
X018253Y007611D01*
X018177Y007534D01*
X018177Y007304D01*
X018023Y007304D02*
X018484Y007304D01*
X018484Y007534D01*
X018407Y007611D01*
X018407Y007150D02*
X018484Y007074D01*
X018484Y006920D01*
X018407Y006844D01*
X018100Y006844D01*
X018023Y006920D01*
X018023Y007074D01*
X018100Y007150D01*
X018253Y007150D01*
X018253Y006997D01*
X018177Y006690D02*
X018177Y006383D01*
X018330Y006383D02*
X018330Y006690D01*
X018330Y006230D02*
X018330Y006076D01*
X018407Y006153D02*
X018100Y006153D01*
X018023Y006230D01*
X018330Y005923D02*
X018330Y005846D01*
X018177Y005693D01*
X018330Y005693D02*
X018023Y005693D01*
X018100Y005539D02*
X018253Y005539D01*
X018330Y005462D01*
X018330Y005309D01*
X018253Y005232D01*
X018100Y005232D01*
X018023Y005309D01*
X018023Y005462D01*
X018100Y005539D01*
X018023Y005079D02*
X018253Y005079D01*
X018330Y005002D01*
X018330Y004848D01*
X018253Y004772D01*
X018330Y004618D02*
X018330Y004388D01*
X018253Y004311D01*
X018177Y004388D01*
X018177Y004542D01*
X018100Y004618D01*
X018023Y004542D01*
X018023Y004311D01*
X018023Y004772D02*
X018484Y004772D01*
X019523Y005002D02*
X019523Y005232D01*
X019600Y005309D01*
X019753Y005309D01*
X019830Y005232D01*
X019830Y005002D01*
X019984Y005002D02*
X019523Y005002D01*
X019523Y005462D02*
X019830Y005462D01*
X019677Y005462D02*
X019830Y005616D01*
X019830Y005693D01*
X019830Y005846D02*
X019830Y005923D01*
X019523Y005923D01*
X019523Y005999D02*
X019523Y005846D01*
X019600Y006153D02*
X019753Y006153D01*
X019830Y006230D01*
X019830Y006460D01*
X019984Y006460D02*
X019523Y006460D01*
X019523Y006230D01*
X019600Y006153D01*
X019984Y005923D02*
X020060Y005923D01*
X020370Y006076D02*
X020370Y006153D01*
X020447Y006230D01*
X020830Y006230D01*
X020830Y005999D01*
X020753Y005923D01*
X020600Y005923D01*
X020523Y005999D01*
X020523Y006230D01*
X020600Y006383D02*
X020753Y006383D01*
X020830Y006460D01*
X020830Y006613D01*
X020753Y006690D01*
X020677Y006690D01*
X020677Y006383D01*
X020600Y006383D02*
X020523Y006460D01*
X020523Y006613D01*
X019830Y006690D02*
X019830Y006920D01*
X019447Y006920D01*
X019370Y006844D01*
X019370Y006767D01*
X019523Y006690D02*
X019523Y006920D01*
X019600Y007074D02*
X019753Y007074D01*
X019830Y007150D01*
X019830Y007304D01*
X019753Y007381D01*
X019677Y007381D01*
X019677Y007074D01*
X019600Y007074D02*
X019523Y007150D01*
X019523Y007304D01*
X019523Y006690D02*
X019600Y006613D01*
X019753Y006613D01*
X019830Y006690D01*
X020523Y007381D02*
X020523Y007457D01*
X020600Y007534D01*
X020984Y007534D01*
X020984Y007457D02*
X020984Y007611D01*
X020753Y007764D02*
X020600Y007764D01*
X020523Y007841D01*
X020523Y007995D01*
X020600Y008071D01*
X020677Y008071D01*
X020753Y007995D01*
X020753Y007764D01*
X020907Y007918D01*
X020984Y008071D01*
X020600Y008301D02*
X020523Y008301D01*
X020523Y008378D01*
X020600Y008378D01*
X020600Y008301D01*
X020523Y008378D02*
X020370Y008225D01*
X019984Y008225D02*
X019600Y008225D01*
X019523Y008148D01*
X019523Y008071D01*
X019600Y007995D01*
X019984Y008148D02*
X019984Y008301D01*
X019984Y008455D02*
X019984Y008762D01*
X019907Y008762D01*
X019600Y008455D01*
X019523Y008455D01*
X019370Y008915D02*
X019523Y009069D01*
X019523Y008992D01*
X019600Y008992D01*
X019600Y009069D01*
X019523Y009069D01*
X019753Y009069D02*
X019753Y008992D01*
X019830Y008992D01*
X019830Y009069D01*
X019753Y009069D01*
X020523Y009069D02*
X020523Y009145D01*
X020600Y009222D01*
X020984Y009222D01*
X020984Y009145D02*
X020984Y009299D01*
X020907Y009452D02*
X020830Y009452D01*
X020753Y009529D01*
X020753Y009683D01*
X020677Y009759D01*
X020600Y009759D01*
X020523Y009683D01*
X020523Y009529D01*
X020600Y009452D01*
X020677Y009452D01*
X020753Y009529D01*
X020753Y009683D02*
X020830Y009759D01*
X020907Y009759D01*
X020984Y009683D01*
X020984Y009529D01*
X020907Y009452D01*
X020523Y009069D02*
X020600Y008992D01*
X019984Y009683D02*
X019523Y009683D01*
X019523Y009913D01*
X019600Y009990D01*
X019753Y009990D01*
X019830Y009913D01*
X019830Y009683D01*
X019830Y010143D02*
X019600Y010143D01*
X019523Y010220D01*
X019523Y010450D01*
X019830Y010450D01*
X019753Y010603D02*
X019753Y010757D01*
X019753Y010910D02*
X019753Y011064D01*
X019753Y011217D02*
X019600Y011217D01*
X019523Y011294D01*
X019523Y011447D01*
X019677Y011524D02*
X019677Y011217D01*
X019753Y011217D02*
X019830Y011294D01*
X019830Y011447D01*
X019753Y011524D01*
X019677Y011524D01*
X019677Y011678D02*
X019830Y011831D01*
X019830Y011908D01*
X019753Y012061D02*
X019830Y012138D01*
X019830Y012368D01*
X019677Y012292D02*
X019677Y012138D01*
X019753Y012061D01*
X019523Y012061D02*
X019523Y012292D01*
X019600Y012368D01*
X019677Y012292D01*
X020523Y012292D02*
X020600Y012215D01*
X020753Y012215D01*
X020830Y012292D01*
X020830Y012445D01*
X020753Y012522D01*
X020677Y012522D01*
X020677Y012215D01*
X020753Y012061D02*
X020753Y011908D01*
X020753Y011754D02*
X020753Y011601D01*
X020830Y011447D02*
X020523Y011447D01*
X020523Y011217D01*
X020600Y011141D01*
X020830Y011141D01*
X020753Y010987D02*
X020600Y010987D01*
X020523Y010910D01*
X020523Y010680D01*
X020984Y010680D01*
X020830Y010680D02*
X020830Y010910D01*
X020753Y010987D01*
X019984Y011064D02*
X019907Y010987D01*
X019523Y010987D01*
X019523Y010680D02*
X019907Y010680D01*
X019984Y010757D01*
X020523Y010066D02*
X020523Y009990D01*
X020600Y009990D01*
X020600Y010066D01*
X020523Y010066D01*
X020370Y009913D01*
X020753Y009990D02*
X020753Y010066D01*
X020830Y010066D01*
X020830Y009990D01*
X020753Y009990D01*
X021870Y010296D02*
X021870Y010373D01*
X021947Y010450D01*
X022330Y010450D01*
X022330Y010220D01*
X022253Y010143D01*
X022100Y010143D01*
X022023Y010220D01*
X022023Y010450D01*
X022330Y009990D02*
X022330Y009913D01*
X022177Y009759D01*
X022330Y009759D02*
X022023Y009759D01*
X022100Y009606D02*
X022023Y009529D01*
X022023Y009376D01*
X022100Y009299D01*
X022253Y009299D01*
X022330Y009376D01*
X022330Y009529D01*
X022253Y009606D01*
X022100Y009606D01*
X022100Y009145D02*
X022023Y009145D01*
X022023Y009069D01*
X022100Y009069D01*
X022100Y009145D01*
X022100Y008915D02*
X022023Y008839D01*
X022023Y008685D01*
X022100Y008608D01*
X022253Y008608D01*
X022330Y008685D01*
X022330Y008839D01*
X022253Y008915D01*
X022100Y008915D01*
X022023Y008455D02*
X022253Y008455D01*
X022330Y008378D01*
X022330Y008148D01*
X022023Y008148D01*
X022023Y007995D02*
X022023Y007841D01*
X022023Y007918D02*
X022330Y007918D01*
X022330Y007841D01*
X022330Y007688D02*
X022023Y007688D01*
X022023Y007457D01*
X022100Y007381D01*
X022330Y007381D01*
X022330Y007227D02*
X022177Y006997D01*
X022023Y007227D01*
X022023Y006997D02*
X022484Y006997D01*
X022330Y006844D02*
X022330Y006613D01*
X022253Y006537D01*
X022100Y006537D01*
X022023Y006613D01*
X022023Y006844D01*
X022023Y006383D02*
X022023Y006153D01*
X022100Y006076D01*
X022177Y006153D01*
X022177Y006383D01*
X022253Y006383D02*
X022023Y006383D01*
X022253Y006383D02*
X022330Y006306D01*
X022330Y006153D01*
X022330Y005923D02*
X022330Y005846D01*
X022177Y005693D01*
X022330Y005693D02*
X022023Y005693D01*
X022023Y005539D02*
X022100Y005462D01*
X022407Y005462D01*
X022330Y005386D02*
X022330Y005539D01*
X022484Y005232D02*
X022023Y004925D01*
X022023Y004465D02*
X022484Y004772D01*
X022330Y004311D02*
X022253Y004311D01*
X022253Y004235D01*
X022330Y004235D01*
X022330Y004311D01*
X022100Y004311D02*
X022023Y004311D01*
X022023Y004235D01*
X022100Y004235D01*
X022100Y004311D01*
X022100Y004081D02*
X022023Y004004D01*
X022023Y003774D01*
X021870Y003774D02*
X022330Y003774D01*
X022330Y004004D01*
X022253Y004081D01*
X022100Y004081D01*
X022023Y003621D02*
X022100Y003544D01*
X022407Y003544D01*
X022330Y003467D02*
X022330Y003621D01*
X022330Y003314D02*
X022330Y003160D01*
X022407Y003237D02*
X022100Y003237D01*
X022023Y003314D01*
X022023Y003007D02*
X022253Y003007D01*
X022330Y002930D01*
X022330Y002777D01*
X022253Y002700D01*
X022023Y002700D02*
X022484Y002700D01*
X020984Y002700D02*
X020753Y002700D01*
X020830Y002853D01*
X020830Y002930D01*
X020753Y003007D01*
X020600Y003007D01*
X020523Y002930D01*
X020523Y002777D01*
X020600Y002700D01*
X020984Y002700D02*
X020984Y003007D01*
X020984Y003160D02*
X020677Y003160D01*
X020523Y003314D01*
X020677Y003467D01*
X020984Y003467D01*
X020830Y003621D02*
X020753Y003621D01*
X020753Y003698D01*
X020830Y003698D01*
X020830Y003621D01*
X020600Y003621D02*
X020600Y003698D01*
X020523Y003698D01*
X020523Y003621D01*
X020600Y003621D01*
X019984Y003621D02*
X019907Y003698D01*
X019830Y003698D01*
X019753Y003621D01*
X019677Y003698D01*
X019600Y003698D01*
X019523Y003621D01*
X019523Y003467D01*
X019600Y003391D01*
X019600Y003237D02*
X019523Y003237D01*
X019523Y003160D01*
X019600Y003160D01*
X019600Y003237D01*
X019600Y003007D02*
X019523Y002930D01*
X019523Y002777D01*
X019600Y002700D01*
X019753Y002853D02*
X019753Y002930D01*
X019677Y003007D01*
X019600Y003007D01*
X019753Y002930D02*
X019830Y003007D01*
X019907Y003007D01*
X019984Y002930D01*
X019984Y002777D01*
X019907Y002700D01*
X019907Y003391D02*
X019984Y003467D01*
X019984Y003621D01*
X019753Y003621D02*
X019753Y003544D01*
X019677Y003851D02*
X019523Y004004D01*
X019677Y004158D01*
X019984Y004158D01*
X019830Y004311D02*
X019753Y004311D01*
X019753Y004388D01*
X019830Y004388D01*
X019830Y004311D01*
X019600Y004311D02*
X019523Y004311D01*
X019523Y004388D01*
X019600Y004388D01*
X019600Y004311D01*
X019677Y003851D02*
X019984Y003851D01*
X020523Y004311D02*
X020523Y004542D01*
X020600Y004618D01*
X020753Y004618D01*
X020830Y004542D01*
X020830Y004311D01*
X020984Y004311D02*
X020523Y004311D01*
X020523Y004772D02*
X020830Y004772D01*
X020677Y004772D02*
X020830Y004925D01*
X020830Y005002D01*
X020830Y005155D02*
X020830Y005232D01*
X020523Y005232D01*
X020523Y005155D02*
X020523Y005309D01*
X020600Y005462D02*
X020753Y005462D01*
X020830Y005539D01*
X020830Y005769D01*
X020984Y005769D02*
X020523Y005769D01*
X020523Y005539D01*
X020600Y005462D01*
X020984Y005232D02*
X021060Y005232D01*
X018484Y003467D02*
X018484Y003160D01*
X018253Y003160D01*
X018330Y003314D01*
X018330Y003391D01*
X018253Y003467D01*
X018100Y003467D01*
X018023Y003391D01*
X018023Y003237D01*
X018100Y003160D01*
X018100Y002930D02*
X018484Y002930D01*
X018484Y002853D02*
X018484Y003007D01*
X018100Y002930D02*
X018023Y002853D01*
X018023Y002777D01*
X018100Y002700D01*
X018100Y003621D02*
X018023Y003621D01*
X018023Y003698D01*
X018100Y003698D01*
X018100Y003621D01*
X018253Y003621D02*
X018330Y003621D01*
X018330Y003698D01*
X018253Y003698D01*
X018253Y003621D01*
X020600Y007304D02*
X020523Y007381D01*
X022484Y007918D02*
X022560Y007918D01*
X020907Y011678D02*
X020523Y011678D01*
X020907Y011678D02*
X020984Y011754D01*
X020907Y011985D02*
X020523Y011985D01*
X020523Y012292D02*
X020523Y012445D01*
X020523Y012675D02*
X020830Y012675D01*
X020677Y012675D02*
X020830Y012829D01*
X020830Y012905D01*
X020984Y012061D02*
X020907Y011985D01*
X019830Y011678D02*
X019523Y011678D01*
X018560Y012675D02*
X018484Y012675D01*
X018253Y015975D02*
X018100Y015975D01*
X018023Y016051D01*
X018023Y016282D01*
X017947Y016282D02*
X018330Y016282D01*
X018330Y016051D01*
X018253Y015975D01*
X017870Y016128D02*
X017870Y016205D01*
X017947Y016282D01*
M02*
