G75*
G70*
%OFA0B0*%
%FSLAX24Y24*%
%IPPOS*%
%LPD*%
%AMOC8*
5,1,8,0,0,1.08239X$1,22.5*
%
%ADD10C,0.0080*%
%ADD11R,0.5000X0.4000*%
%ADD12R,0.0515X0.0515*%
%ADD13OC8,0.0630*%
%ADD14C,0.0630*%
%ADD15OC8,0.0520*%
%ADD16C,0.0600*%
%ADD17C,0.0740*%
%ADD18R,0.0740X0.0740*%
%ADD19C,0.0750*%
%ADD20C,0.1050*%
%ADD21C,0.0705*%
%ADD22C,0.0660*%
%ADD23C,0.0160*%
%ADD24C,0.0360*%
%ADD25C,0.0200*%
%ADD26C,0.0300*%
%ADD27C,0.0100*%
%ADD28C,0.1660*%
%ADD29R,0.0396X0.0396*%
D10*
X002503Y000180D02*
X029003Y000180D01*
X029003Y007180D01*
X027503Y009180D01*
X027503Y021180D01*
X002503Y021180D01*
X002503Y000180D01*
D11*
X013503Y005680D03*
D12*
X024903Y005980D03*
X024903Y004980D03*
X024903Y003980D03*
X024903Y011980D03*
X024903Y012980D03*
X024903Y013980D03*
X024903Y014980D03*
D13*
X024803Y016880D03*
X026803Y016880D03*
X026703Y010180D03*
X024703Y010180D03*
X014503Y010680D03*
X012503Y010680D03*
X008003Y015180D03*
X008003Y017180D03*
D14*
X012503Y009680D03*
X014503Y009680D03*
D15*
X016003Y017930D03*
X015503Y018680D03*
X016503Y018680D03*
D16*
X016893Y016260D02*
X016893Y015660D01*
X015113Y015660D02*
X015113Y016260D01*
X015113Y013700D02*
X015113Y013100D01*
X016893Y013100D02*
X016893Y013700D01*
X004503Y019880D02*
X004503Y020480D01*
X003503Y020480D02*
X003503Y019880D01*
D17*
X011503Y020130D03*
X012503Y020230D03*
X013503Y020130D03*
X014503Y020230D03*
X015503Y020130D03*
X016503Y020230D03*
X017503Y020130D03*
X020003Y020130D03*
X021003Y020230D03*
X022003Y020130D03*
X023003Y020230D03*
X024003Y020130D03*
X025003Y020230D03*
X026003Y020130D03*
X025003Y001280D03*
X024003Y001080D03*
X023003Y001280D03*
X022003Y001080D03*
X021003Y001280D03*
X019003Y001080D03*
X018003Y001280D03*
X017003Y001080D03*
X016003Y001280D03*
X015003Y001080D03*
X014003Y001280D03*
X026003Y001080D03*
D18*
X019003Y020230D03*
X010503Y020230D03*
D19*
X027003Y005680D03*
D20*
X025999Y004676D03*
X028007Y004676D03*
X028007Y006684D03*
X025999Y006684D03*
D21*
X007472Y002540D02*
X007472Y001835D01*
X005503Y001835D02*
X005503Y002540D01*
X003535Y002540D02*
X003535Y001835D01*
X004151Y005196D02*
X004856Y005196D01*
X004856Y007164D02*
X004151Y007164D01*
X004151Y009196D02*
X004856Y009196D01*
X004856Y011164D02*
X004151Y011164D01*
D22*
X006503Y012893D03*
X007503Y012893D03*
X008503Y012893D03*
X009503Y012893D03*
X010503Y012893D03*
X011503Y012893D03*
X012503Y012893D03*
X013503Y012893D03*
X013503Y018893D03*
X012503Y018893D03*
X011503Y018893D03*
X010503Y018893D03*
X009503Y018893D03*
X008503Y018893D03*
X007503Y018893D03*
X006503Y018893D03*
D23*
X006013Y018883D02*
X002823Y018883D01*
X002823Y018725D02*
X006043Y018725D01*
X006013Y018795D02*
X006088Y018615D01*
X006226Y018477D01*
X006406Y018403D01*
X006601Y018403D01*
X006781Y018477D01*
X006919Y018615D01*
X006993Y018795D01*
X006993Y018990D01*
X006919Y019170D01*
X006899Y019190D01*
X007108Y019190D01*
X007088Y019170D01*
X007013Y018990D01*
X007013Y018795D01*
X007088Y018615D01*
X007226Y018477D01*
X007406Y018403D01*
X007601Y018403D01*
X007781Y018477D01*
X007919Y018615D01*
X007993Y018795D01*
X007993Y018990D01*
X007919Y019170D01*
X007781Y019308D01*
X007604Y019381D01*
X007842Y019619D01*
X007993Y019983D01*
X007993Y020377D01*
X007842Y020741D01*
X007723Y020860D01*
X027183Y020860D01*
X027183Y017172D01*
X027000Y017355D01*
X026607Y017355D01*
X026328Y017077D01*
X026328Y016683D01*
X026607Y016405D01*
X027000Y016405D01*
X027183Y016588D01*
X027183Y009203D01*
X027177Y009162D01*
X027183Y009140D01*
X027183Y009116D01*
X027199Y009079D01*
X027209Y009039D01*
X027223Y009020D01*
X027232Y008999D01*
X027261Y008970D01*
X028683Y007073D01*
X028683Y006885D01*
X028676Y006911D01*
X028641Y006996D01*
X028595Y007076D01*
X028538Y007150D01*
X028473Y007215D01*
X028400Y007271D01*
X028320Y007318D01*
X028234Y007353D01*
X028145Y007377D01*
X028087Y007384D01*
X028087Y006764D01*
X027927Y006764D01*
X027927Y006604D01*
X027307Y006604D01*
X027314Y006546D01*
X027338Y006457D01*
X027374Y006371D01*
X027420Y006291D01*
X027476Y006218D01*
X027541Y006153D01*
X027615Y006096D01*
X027695Y006050D01*
X027780Y006015D01*
X027869Y005991D01*
X027927Y005983D01*
X027927Y006604D01*
X028087Y006604D01*
X028087Y005983D01*
X028145Y005991D01*
X028234Y006015D01*
X028320Y006050D01*
X028400Y006096D01*
X028473Y006153D01*
X028538Y006218D01*
X028595Y006291D01*
X028641Y006371D01*
X028676Y006457D01*
X028683Y006483D01*
X028683Y004877D01*
X028676Y004903D01*
X028641Y004989D01*
X028595Y005069D01*
X028538Y005142D01*
X028473Y005207D01*
X028400Y005264D01*
X028320Y005310D01*
X028234Y005345D01*
X028145Y005369D01*
X028087Y005377D01*
X028087Y004756D01*
X027927Y004756D01*
X027927Y004596D01*
X027307Y004596D01*
X027314Y004538D01*
X027338Y004449D01*
X027374Y004364D01*
X027420Y004284D01*
X027476Y004210D01*
X027541Y004145D01*
X027615Y004089D01*
X027695Y004042D01*
X027780Y004007D01*
X027869Y003983D01*
X027927Y003976D01*
X027927Y004596D01*
X028087Y004596D01*
X028087Y003976D01*
X028145Y003983D01*
X028234Y004007D01*
X028320Y004042D01*
X028400Y004089D01*
X028473Y004145D01*
X028538Y004210D01*
X028595Y004284D01*
X028641Y004364D01*
X028676Y004449D01*
X028683Y004475D01*
X028683Y000500D01*
X002823Y000500D01*
X002823Y020860D01*
X003233Y020860D01*
X003113Y020741D01*
X003043Y020571D01*
X003043Y019788D01*
X003113Y019619D01*
X003243Y019490D01*
X003412Y019420D01*
X003595Y019420D01*
X003764Y019490D01*
X003893Y019619D01*
X003963Y019788D01*
X003963Y020571D01*
X003893Y020741D01*
X003774Y020860D01*
X004233Y020860D01*
X004113Y020741D01*
X004043Y020571D01*
X004043Y019788D01*
X004113Y019619D01*
X004243Y019490D01*
X004412Y019420D01*
X004595Y019420D01*
X004764Y019490D01*
X004893Y019619D01*
X004963Y019788D01*
X004963Y020571D01*
X004893Y020741D01*
X004774Y020860D01*
X006283Y020860D01*
X006164Y020741D01*
X006013Y020377D01*
X006013Y019983D01*
X006164Y019619D01*
X006402Y019381D01*
X006226Y019308D01*
X006088Y019170D01*
X006013Y018990D01*
X006013Y018795D01*
X006137Y018566D02*
X002823Y018566D01*
X002823Y018408D02*
X006394Y018408D01*
X006613Y018408D02*
X007394Y018408D01*
X007613Y018408D02*
X008394Y018408D01*
X008406Y018403D02*
X008601Y018403D01*
X008781Y018477D01*
X008919Y018615D01*
X008993Y018795D01*
X008993Y018990D01*
X008919Y019170D01*
X008781Y019308D01*
X008601Y019383D01*
X008406Y019383D01*
X008226Y019308D01*
X008088Y019170D01*
X008013Y018990D01*
X008013Y018795D01*
X008088Y018615D01*
X008226Y018477D01*
X008406Y018403D01*
X008613Y018408D02*
X009394Y018408D01*
X009406Y018403D02*
X009601Y018403D01*
X009781Y018477D01*
X009919Y018615D01*
X009993Y018795D01*
X009993Y018990D01*
X009919Y019170D01*
X009781Y019308D01*
X009601Y019383D01*
X009406Y019383D01*
X009226Y019308D01*
X009088Y019170D01*
X009013Y018990D01*
X009013Y018795D01*
X009088Y018615D01*
X009226Y018477D01*
X009406Y018403D01*
X009613Y018408D02*
X010394Y018408D01*
X010406Y018403D02*
X010601Y018403D01*
X010781Y018477D01*
X010919Y018615D01*
X010993Y018795D01*
X010993Y018990D01*
X010919Y019170D01*
X010781Y019308D01*
X010601Y019383D01*
X010406Y019383D01*
X010226Y019308D01*
X010088Y019170D01*
X010013Y018990D01*
X010013Y018795D01*
X010088Y018615D01*
X010226Y018477D01*
X010406Y018403D01*
X010613Y018408D02*
X011394Y018408D01*
X011406Y018403D02*
X011601Y018403D01*
X011781Y018477D01*
X011919Y018615D01*
X011993Y018795D01*
X011993Y018990D01*
X011919Y019170D01*
X011781Y019308D01*
X011601Y019383D01*
X011406Y019383D01*
X011226Y019308D01*
X011088Y019170D01*
X011013Y018990D01*
X011013Y018795D01*
X011088Y018615D01*
X011226Y018477D01*
X011406Y018403D01*
X011613Y018408D02*
X012394Y018408D01*
X012406Y018403D02*
X012226Y018477D01*
X012088Y018615D01*
X012013Y018795D01*
X012013Y018990D01*
X012088Y019170D01*
X012226Y019308D01*
X012406Y019383D01*
X012601Y019383D01*
X012781Y019308D01*
X012919Y019170D01*
X012993Y018990D01*
X012993Y018795D01*
X012919Y018615D01*
X012781Y018477D01*
X012601Y018403D01*
X012406Y018403D01*
X012613Y018408D02*
X013394Y018408D01*
X013406Y018403D02*
X013601Y018403D01*
X013781Y018477D01*
X013919Y018615D01*
X013993Y018795D01*
X013993Y018990D01*
X013919Y019170D01*
X013781Y019308D01*
X013601Y019383D01*
X013406Y019383D01*
X013226Y019308D01*
X013088Y019170D01*
X013013Y018990D01*
X013013Y018795D01*
X013088Y018615D01*
X013226Y018477D01*
X013406Y018403D01*
X013613Y018408D02*
X015153Y018408D01*
X015063Y018498D02*
X015321Y018240D01*
X015503Y018240D01*
X015503Y018680D01*
X015063Y018680D01*
X015503Y018680D01*
X015503Y018680D01*
X015503Y018680D01*
X015503Y019120D01*
X015321Y019120D01*
X015063Y018862D01*
X015063Y018680D01*
X015063Y018498D01*
X015063Y018566D02*
X013870Y018566D01*
X013964Y018725D02*
X015063Y018725D01*
X015084Y018883D02*
X013993Y018883D01*
X013972Y019042D02*
X015243Y019042D01*
X015503Y019042D02*
X015503Y019042D01*
X015503Y019120D02*
X015686Y019120D01*
X015943Y018862D01*
X015943Y018680D01*
X015503Y018680D01*
X015503Y018680D01*
X015503Y018240D01*
X015686Y018240D01*
X015943Y018498D01*
X015943Y018680D01*
X015503Y018680D01*
X015503Y019120D01*
X015503Y018883D02*
X015503Y018883D01*
X015503Y018725D02*
X015503Y018725D01*
X015503Y018680D02*
X015503Y018680D01*
X015503Y018566D02*
X015503Y018566D01*
X015503Y018408D02*
X015503Y018408D01*
X015503Y018249D02*
X015503Y018249D01*
X015583Y018104D02*
X015583Y017756D01*
X015829Y017510D01*
X016177Y017510D01*
X016423Y017756D01*
X016423Y017820D01*
X019182Y017820D01*
X019261Y017742D01*
X019386Y017690D01*
X019521Y017690D01*
X019646Y017742D01*
X019742Y017837D01*
X019793Y017962D01*
X019793Y018098D01*
X019742Y018223D01*
X019646Y018318D01*
X019521Y018370D01*
X019386Y018370D01*
X019261Y018318D01*
X019182Y018240D01*
X016287Y018240D01*
X016177Y018350D01*
X015829Y018350D01*
X015583Y018104D01*
X015583Y018091D02*
X002823Y018091D01*
X002823Y018249D02*
X015312Y018249D01*
X015695Y018249D02*
X015728Y018249D01*
X015853Y018408D02*
X016182Y018408D01*
X016083Y018506D02*
X016329Y018260D01*
X016677Y018260D01*
X016923Y018506D01*
X016923Y018854D01*
X016677Y019100D01*
X016329Y019100D01*
X016083Y018854D01*
X016083Y018506D01*
X016083Y018566D02*
X015943Y018566D01*
X015943Y018725D02*
X016083Y018725D01*
X016112Y018883D02*
X015922Y018883D01*
X015764Y019042D02*
X016271Y019042D01*
X016736Y019042D02*
X023618Y019042D01*
X023776Y019200D02*
X013889Y019200D01*
X013659Y019359D02*
X023935Y019359D01*
X024093Y019517D02*
X007740Y019517D01*
X007659Y019359D02*
X008348Y019359D01*
X008118Y019200D02*
X007889Y019200D01*
X007972Y019042D02*
X008035Y019042D01*
X008013Y018883D02*
X007993Y018883D01*
X007964Y018725D02*
X008043Y018725D01*
X008137Y018566D02*
X007870Y018566D01*
X007137Y018566D02*
X006870Y018566D01*
X006964Y018725D02*
X007043Y018725D01*
X007013Y018883D02*
X006993Y018883D01*
X006972Y019042D02*
X007035Y019042D01*
X006348Y019359D02*
X002823Y019359D01*
X002823Y019517D02*
X003216Y019517D01*
X003090Y019676D02*
X002823Y019676D01*
X002823Y019834D02*
X003043Y019834D01*
X003043Y019993D02*
X002823Y019993D01*
X002823Y020151D02*
X003043Y020151D01*
X003043Y020310D02*
X002823Y020310D01*
X002823Y020468D02*
X003043Y020468D01*
X003066Y020627D02*
X002823Y020627D01*
X002823Y020785D02*
X003158Y020785D01*
X003849Y020785D02*
X004158Y020785D01*
X004066Y020627D02*
X003940Y020627D01*
X003963Y020468D02*
X004043Y020468D01*
X004043Y020310D02*
X003963Y020310D01*
X003963Y020151D02*
X004043Y020151D01*
X004043Y019993D02*
X003963Y019993D01*
X003963Y019834D02*
X004043Y019834D01*
X004090Y019676D02*
X003916Y019676D01*
X003791Y019517D02*
X004216Y019517D01*
X004791Y019517D02*
X006266Y019517D01*
X006141Y019676D02*
X004916Y019676D01*
X004963Y019834D02*
X006075Y019834D01*
X006013Y019993D02*
X004963Y019993D01*
X004963Y020151D02*
X006013Y020151D01*
X006013Y020310D02*
X004963Y020310D01*
X004963Y020468D02*
X006051Y020468D01*
X006117Y020627D02*
X004940Y020627D01*
X004849Y020785D02*
X006208Y020785D01*
X007798Y020785D02*
X027183Y020785D01*
X027183Y020627D02*
X026189Y020627D01*
X026109Y020660D02*
X026303Y020579D01*
X026453Y020430D01*
X026533Y020235D01*
X026533Y020025D01*
X026453Y019830D01*
X026303Y019681D01*
X026109Y019600D01*
X025970Y019600D01*
X021040Y014670D01*
X013540Y014670D01*
X011954Y013084D01*
X011993Y012990D01*
X011993Y012795D01*
X011919Y012615D01*
X011781Y012477D01*
X011601Y012403D01*
X011406Y012403D01*
X011226Y012477D01*
X011088Y012615D01*
X011013Y012795D01*
X011013Y012990D01*
X011088Y013170D01*
X011226Y013308D01*
X011406Y013383D01*
X011601Y013383D01*
X011642Y013366D01*
X013243Y014967D01*
X013366Y015090D01*
X020866Y015090D01*
X025580Y019804D01*
X025554Y019830D01*
X025483Y020002D01*
X025453Y019930D01*
X025303Y019781D01*
X025109Y019700D01*
X024898Y019700D01*
X024878Y019708D01*
X022213Y017043D01*
X022090Y016920D01*
X008415Y016920D01*
X008200Y016705D01*
X007807Y016705D01*
X007528Y016983D01*
X007528Y017377D01*
X007807Y017655D01*
X008200Y017655D01*
X008478Y017377D01*
X008478Y017340D01*
X021916Y017340D01*
X024224Y019648D01*
X024109Y019600D01*
X023898Y019600D01*
X023703Y019681D01*
X023554Y019830D01*
X023483Y020002D01*
X023453Y019930D01*
X023303Y019781D01*
X023109Y019700D01*
X022898Y019700D01*
X022703Y019781D01*
X022554Y019930D01*
X022524Y020002D01*
X022453Y019830D01*
X022303Y019681D01*
X022109Y019600D01*
X021898Y019600D01*
X021703Y019681D01*
X021554Y019830D01*
X021483Y020002D01*
X021453Y019930D01*
X021303Y019781D01*
X021109Y019700D01*
X020898Y019700D01*
X020703Y019781D01*
X020554Y019930D01*
X020524Y020002D01*
X020453Y019830D01*
X020303Y019681D01*
X020109Y019600D01*
X019898Y019600D01*
X019703Y019681D01*
X019554Y019830D01*
X019533Y019880D01*
X019533Y019794D01*
X019440Y019700D01*
X018567Y019700D01*
X018473Y019794D01*
X018473Y020666D01*
X018567Y020760D01*
X019440Y020760D01*
X019533Y020666D01*
X019533Y020380D01*
X019554Y020430D01*
X019703Y020579D01*
X019898Y020660D01*
X020109Y020660D01*
X020303Y020579D01*
X020453Y020430D01*
X020483Y020358D01*
X020554Y020530D01*
X020703Y020679D01*
X020898Y020760D01*
X021109Y020760D01*
X021303Y020679D01*
X021453Y020530D01*
X021524Y020358D01*
X021554Y020430D01*
X021703Y020579D01*
X021898Y020660D01*
X022109Y020660D01*
X022303Y020579D01*
X022453Y020430D01*
X022483Y020358D01*
X022554Y020530D01*
X022703Y020679D01*
X022898Y020760D01*
X023109Y020760D01*
X023303Y020679D01*
X023453Y020530D01*
X023524Y020358D01*
X023554Y020430D01*
X023703Y020579D01*
X023898Y020660D01*
X024109Y020660D01*
X024303Y020579D01*
X024453Y020430D01*
X024483Y020358D01*
X024554Y020530D01*
X024703Y020679D01*
X024898Y020760D01*
X025109Y020760D01*
X025303Y020679D01*
X025453Y020530D01*
X025524Y020358D01*
X025554Y020430D01*
X025703Y020579D01*
X025898Y020660D01*
X026109Y020660D01*
X025817Y020627D02*
X025356Y020627D01*
X025478Y020468D02*
X025592Y020468D01*
X025487Y019993D02*
X025479Y019993D01*
X025552Y019834D02*
X025357Y019834D01*
X025452Y019676D02*
X024846Y019676D01*
X024687Y019517D02*
X025293Y019517D01*
X025135Y019359D02*
X024529Y019359D01*
X024370Y019200D02*
X024976Y019200D01*
X024818Y019042D02*
X024212Y019042D01*
X024053Y018883D02*
X024659Y018883D01*
X024501Y018725D02*
X023895Y018725D01*
X023736Y018566D02*
X024342Y018566D01*
X024184Y018408D02*
X023578Y018408D01*
X023419Y018249D02*
X024025Y018249D01*
X023867Y018091D02*
X023261Y018091D01*
X023102Y017932D02*
X023708Y017932D01*
X023550Y017774D02*
X022944Y017774D01*
X022785Y017615D02*
X023391Y017615D01*
X023233Y017457D02*
X022627Y017457D01*
X022468Y017298D02*
X023074Y017298D01*
X022916Y017140D02*
X022310Y017140D01*
X022151Y016981D02*
X022757Y016981D01*
X022599Y016823D02*
X008318Y016823D01*
X007689Y016823D02*
X002823Y016823D01*
X002823Y016981D02*
X007530Y016981D01*
X007528Y017140D02*
X002823Y017140D01*
X002823Y017298D02*
X007528Y017298D01*
X007608Y017457D02*
X002823Y017457D01*
X002823Y017615D02*
X007767Y017615D01*
X008240Y017615D02*
X015724Y017615D01*
X015583Y017774D02*
X002823Y017774D01*
X002823Y017932D02*
X015583Y017932D01*
X016278Y018249D02*
X019191Y018249D01*
X019229Y017774D02*
X016423Y017774D01*
X016282Y017615D02*
X022191Y017615D01*
X022033Y017457D02*
X008398Y017457D01*
X008870Y018566D02*
X009137Y018566D01*
X009043Y018725D02*
X008964Y018725D01*
X008993Y018883D02*
X009013Y018883D01*
X009035Y019042D02*
X008972Y019042D01*
X008889Y019200D02*
X009118Y019200D01*
X009348Y019359D02*
X008659Y019359D01*
X007931Y019834D02*
X009973Y019834D01*
X009973Y019794D02*
X010067Y019700D01*
X010940Y019700D01*
X011033Y019794D01*
X011033Y019841D01*
X011084Y019772D01*
X011145Y019710D01*
X011215Y019660D01*
X011292Y019620D01*
X011374Y019594D01*
X011460Y019580D01*
X011483Y019580D01*
X011483Y020110D01*
X011523Y020110D01*
X011523Y019580D01*
X011547Y019580D01*
X011632Y019594D01*
X011714Y019620D01*
X011792Y019660D01*
X011862Y019710D01*
X011923Y019772D01*
X011974Y019842D01*
X012013Y019919D01*
X012033Y019980D01*
X012054Y019930D01*
X012203Y019781D01*
X012398Y019700D01*
X012609Y019700D01*
X012803Y019781D01*
X012953Y019930D01*
X012983Y020002D01*
X013054Y019830D01*
X013203Y019681D01*
X013398Y019600D01*
X013609Y019600D01*
X013803Y019681D01*
X013953Y019830D01*
X014024Y020002D01*
X014054Y019930D01*
X014203Y019781D01*
X014398Y019700D01*
X014609Y019700D01*
X014803Y019781D01*
X014953Y019930D01*
X014983Y020002D01*
X015054Y019830D01*
X015203Y019681D01*
X015398Y019600D01*
X015609Y019600D01*
X015803Y019681D01*
X015953Y019830D01*
X016024Y020002D01*
X016054Y019930D01*
X016203Y019781D01*
X016398Y019700D01*
X016609Y019700D01*
X016803Y019781D01*
X016953Y019930D01*
X016983Y020002D01*
X017054Y019830D01*
X017203Y019681D01*
X017398Y019600D01*
X017609Y019600D01*
X017803Y019681D01*
X017953Y019830D01*
X018033Y020025D01*
X018033Y020235D01*
X017953Y020430D01*
X017803Y020579D01*
X017609Y020660D01*
X017398Y020660D01*
X017203Y020579D01*
X017054Y020430D01*
X017024Y020358D01*
X016953Y020530D01*
X016803Y020679D01*
X016609Y020760D01*
X016398Y020760D01*
X016203Y020679D01*
X016054Y020530D01*
X015983Y020358D01*
X015953Y020430D01*
X015803Y020579D01*
X015609Y020660D01*
X015398Y020660D01*
X015203Y020579D01*
X015054Y020430D01*
X015024Y020358D01*
X014953Y020530D01*
X014803Y020679D01*
X014609Y020760D01*
X014398Y020760D01*
X014203Y020679D01*
X014054Y020530D01*
X013983Y020358D01*
X013953Y020430D01*
X013803Y020579D01*
X013609Y020660D01*
X013398Y020660D01*
X013203Y020579D01*
X013054Y020430D01*
X013024Y020358D01*
X012953Y020530D01*
X012803Y020679D01*
X012609Y020760D01*
X012398Y020760D01*
X012203Y020679D01*
X012054Y020530D01*
X011992Y020382D01*
X011974Y020418D01*
X011923Y020488D01*
X011862Y020550D01*
X011792Y020600D01*
X011714Y020640D01*
X011632Y020666D01*
X011547Y020680D01*
X011523Y020680D01*
X011523Y020150D01*
X011483Y020150D01*
X011483Y020680D01*
X011460Y020680D01*
X011374Y020666D01*
X011292Y020640D01*
X011215Y020600D01*
X011145Y020550D01*
X011084Y020488D01*
X011033Y020419D01*
X011033Y020666D01*
X010940Y020760D01*
X010067Y020760D01*
X009973Y020666D01*
X009973Y019794D01*
X009973Y019993D02*
X007993Y019993D01*
X007993Y020151D02*
X009973Y020151D01*
X009973Y020310D02*
X007993Y020310D01*
X007955Y020468D02*
X009973Y020468D01*
X009973Y020627D02*
X007890Y020627D01*
X007866Y019676D02*
X011193Y019676D01*
X011038Y019834D02*
X011033Y019834D01*
X011483Y019834D02*
X011523Y019834D01*
X011523Y019676D02*
X011483Y019676D01*
X011483Y019993D02*
X011523Y019993D01*
X011523Y020151D02*
X011483Y020151D01*
X011483Y020310D02*
X011523Y020310D01*
X011523Y020468D02*
X011483Y020468D01*
X011483Y020627D02*
X011523Y020627D01*
X011740Y020627D02*
X012150Y020627D01*
X012028Y020468D02*
X011938Y020468D01*
X011266Y020627D02*
X011033Y020627D01*
X011033Y020468D02*
X011069Y020468D01*
X011813Y019676D02*
X013216Y019676D01*
X013052Y019834D02*
X012857Y019834D01*
X012979Y019993D02*
X012987Y019993D01*
X012978Y020468D02*
X013092Y020468D01*
X013317Y020627D02*
X012856Y020627D01*
X013689Y020627D02*
X014150Y020627D01*
X014028Y020468D02*
X013915Y020468D01*
X014020Y019993D02*
X014028Y019993D01*
X013954Y019834D02*
X014150Y019834D01*
X013791Y019676D02*
X015216Y019676D01*
X015052Y019834D02*
X014857Y019834D01*
X014979Y019993D02*
X014987Y019993D01*
X014978Y020468D02*
X015092Y020468D01*
X015317Y020627D02*
X014856Y020627D01*
X015689Y020627D02*
X016150Y020627D01*
X016028Y020468D02*
X015915Y020468D01*
X016020Y019993D02*
X016028Y019993D01*
X015954Y019834D02*
X016150Y019834D01*
X015791Y019676D02*
X017216Y019676D01*
X017052Y019834D02*
X016857Y019834D01*
X016979Y019993D02*
X016987Y019993D01*
X016978Y020468D02*
X017092Y020468D01*
X017317Y020627D02*
X016856Y020627D01*
X017689Y020627D02*
X018473Y020627D01*
X018473Y020468D02*
X017915Y020468D01*
X018003Y020310D02*
X018473Y020310D01*
X018473Y020151D02*
X018033Y020151D01*
X018020Y019993D02*
X018473Y019993D01*
X018473Y019834D02*
X017954Y019834D01*
X017791Y019676D02*
X019716Y019676D01*
X019552Y019834D02*
X019533Y019834D01*
X020291Y019676D02*
X021716Y019676D01*
X021552Y019834D02*
X021357Y019834D01*
X021479Y019993D02*
X021487Y019993D01*
X021478Y020468D02*
X021592Y020468D01*
X021817Y020627D02*
X021356Y020627D01*
X020650Y020627D02*
X020189Y020627D01*
X020415Y020468D02*
X020528Y020468D01*
X020520Y019993D02*
X020528Y019993D01*
X020454Y019834D02*
X020650Y019834D01*
X019592Y020468D02*
X019533Y020468D01*
X019533Y020627D02*
X019817Y020627D01*
X022189Y020627D02*
X022650Y020627D01*
X022528Y020468D02*
X022415Y020468D01*
X022520Y019993D02*
X022528Y019993D01*
X022454Y019834D02*
X022650Y019834D01*
X022291Y019676D02*
X023716Y019676D01*
X023552Y019834D02*
X023357Y019834D01*
X023479Y019993D02*
X023487Y019993D01*
X023478Y020468D02*
X023592Y020468D01*
X023817Y020627D02*
X023356Y020627D01*
X024189Y020627D02*
X024650Y020627D01*
X024528Y020468D02*
X024415Y020468D01*
X025729Y019359D02*
X027183Y019359D01*
X027183Y019517D02*
X025887Y019517D01*
X026291Y019676D02*
X027183Y019676D01*
X027183Y019834D02*
X026454Y019834D01*
X026520Y019993D02*
X027183Y019993D01*
X027183Y020151D02*
X026533Y020151D01*
X026503Y020310D02*
X027183Y020310D01*
X027183Y020468D02*
X026415Y020468D01*
X027183Y019200D02*
X025570Y019200D01*
X025412Y019042D02*
X027183Y019042D01*
X027183Y018883D02*
X025253Y018883D01*
X025095Y018725D02*
X027183Y018725D01*
X027183Y018566D02*
X024936Y018566D01*
X024778Y018408D02*
X027183Y018408D01*
X027183Y018249D02*
X024619Y018249D01*
X024461Y018091D02*
X027183Y018091D01*
X027183Y017932D02*
X024302Y017932D01*
X024144Y017774D02*
X027183Y017774D01*
X027183Y017615D02*
X023985Y017615D01*
X023827Y017457D02*
X027183Y017457D01*
X027183Y017298D02*
X027057Y017298D01*
X026550Y017298D02*
X025057Y017298D01*
X025000Y017355D02*
X024607Y017355D01*
X024328Y017077D01*
X024328Y016683D01*
X024607Y016405D01*
X025000Y016405D01*
X025278Y016683D01*
X025278Y017077D01*
X025000Y017355D01*
X025215Y017140D02*
X026391Y017140D01*
X026328Y016981D02*
X025278Y016981D01*
X025278Y016823D02*
X026328Y016823D01*
X026347Y016664D02*
X025259Y016664D01*
X025101Y016506D02*
X026506Y016506D01*
X027101Y016506D02*
X027183Y016506D01*
X027183Y016347D02*
X022717Y016347D01*
X022559Y016189D02*
X027183Y016189D01*
X027183Y016030D02*
X022400Y016030D01*
X022242Y015872D02*
X027183Y015872D01*
X027183Y015713D02*
X022083Y015713D01*
X021925Y015555D02*
X027183Y015555D01*
X027183Y015396D02*
X025228Y015396D01*
X025227Y015397D02*
X025321Y015304D01*
X025321Y014656D01*
X025227Y014563D01*
X024580Y014563D01*
X024486Y014656D01*
X024486Y015304D01*
X024580Y015397D01*
X025227Y015397D01*
X025321Y015238D02*
X027183Y015238D01*
X027183Y015079D02*
X025321Y015079D01*
X025321Y014921D02*
X027183Y014921D01*
X027183Y014762D02*
X025321Y014762D01*
X025268Y014604D02*
X027183Y014604D01*
X027183Y014445D02*
X013315Y014445D01*
X013157Y014287D02*
X024473Y014287D01*
X024478Y014307D02*
X024466Y014261D01*
X024466Y013980D01*
X024466Y013699D01*
X024478Y013653D01*
X024502Y013612D01*
X024535Y013578D01*
X024576Y013555D01*
X024622Y013543D01*
X024903Y013543D01*
X024903Y013980D01*
X024466Y013980D01*
X024903Y013980D01*
X024903Y013980D01*
X024903Y014417D01*
X024622Y014417D01*
X024576Y014405D01*
X024535Y014382D01*
X024502Y014348D01*
X024478Y014307D01*
X024466Y014128D02*
X017111Y014128D01*
X017078Y014145D02*
X017006Y014168D01*
X016931Y014180D01*
X016913Y014180D01*
X016913Y013420D01*
X016873Y013420D01*
X016873Y013380D01*
X016413Y013380D01*
X016413Y013062D01*
X016425Y012988D01*
X016448Y012916D01*
X016483Y012848D01*
X016527Y012787D01*
X016581Y012734D01*
X016642Y012689D01*
X016709Y012655D01*
X016781Y012632D01*
X016855Y012620D01*
X016873Y012620D01*
X016873Y013380D01*
X016913Y013380D01*
X016913Y012620D01*
X016931Y012620D01*
X017006Y012632D01*
X017078Y012655D01*
X017145Y012689D01*
X017206Y012734D01*
X017259Y012787D01*
X017304Y012848D01*
X017338Y012916D01*
X017361Y012988D01*
X017373Y013062D01*
X017373Y013380D01*
X016913Y013380D01*
X016913Y013420D01*
X017373Y013420D01*
X017373Y013738D01*
X017361Y013812D01*
X017338Y013884D01*
X017304Y013952D01*
X017259Y014013D01*
X017206Y014066D01*
X017145Y014111D01*
X017078Y014145D01*
X016913Y014128D02*
X016873Y014128D01*
X016873Y014180D02*
X016855Y014180D01*
X016781Y014168D01*
X016709Y014145D01*
X016642Y014111D01*
X016581Y014066D01*
X016527Y014013D01*
X016483Y013952D01*
X016448Y013884D01*
X016425Y013812D01*
X016413Y013738D01*
X016413Y013420D01*
X016873Y013420D01*
X016873Y014180D01*
X016676Y014128D02*
X015282Y014128D01*
X015205Y014160D02*
X015022Y014160D01*
X014853Y014090D01*
X014723Y013961D01*
X014653Y013791D01*
X014653Y013008D01*
X014723Y012839D01*
X014853Y012710D01*
X015022Y012640D01*
X015205Y012640D01*
X015374Y012710D01*
X015503Y012839D01*
X015573Y013008D01*
X015573Y013791D01*
X015503Y013961D01*
X015374Y014090D01*
X015205Y014160D01*
X014945Y014128D02*
X012998Y014128D01*
X012840Y013970D02*
X014732Y013970D01*
X014661Y013811D02*
X012681Y013811D01*
X012523Y013653D02*
X014653Y013653D01*
X014653Y013494D02*
X012364Y013494D01*
X012406Y013383D02*
X012226Y013308D01*
X012088Y013170D01*
X012013Y012990D01*
X012013Y012795D01*
X012088Y012615D01*
X012226Y012477D01*
X012406Y012403D01*
X012601Y012403D01*
X012781Y012477D01*
X012919Y012615D01*
X012993Y012795D01*
X012993Y012990D01*
X012919Y013170D01*
X012781Y013308D01*
X012601Y013383D01*
X012406Y013383D01*
X012292Y013336D02*
X012206Y013336D01*
X012095Y013177D02*
X012047Y013177D01*
X012025Y013019D02*
X011981Y013019D01*
X011993Y012860D02*
X012013Y012860D01*
X012052Y012702D02*
X011954Y012702D01*
X011847Y012543D02*
X012160Y012543D01*
X012847Y012543D02*
X013132Y012543D01*
X013114Y012560D02*
X013171Y012504D01*
X013236Y012456D01*
X013308Y012420D01*
X013384Y012395D01*
X013463Y012383D01*
X013503Y012383D01*
X013503Y012893D01*
X013503Y013403D01*
X013463Y013403D01*
X013384Y013390D01*
X013308Y013365D01*
X013236Y013329D01*
X013171Y013282D01*
X013114Y013225D01*
X013067Y013160D01*
X013031Y013088D01*
X013006Y013012D01*
X012993Y012933D01*
X012993Y012893D01*
X013503Y012893D01*
X013503Y012893D01*
X013503Y012893D01*
X013503Y013403D01*
X013543Y013403D01*
X013623Y013390D01*
X013699Y013365D01*
X013771Y013329D01*
X013836Y013282D01*
X013892Y013225D01*
X013939Y013160D01*
X013976Y013088D01*
X014001Y013012D01*
X014013Y012933D01*
X014013Y012893D01*
X013503Y012893D01*
X012993Y012893D01*
X012993Y012852D01*
X013006Y012773D01*
X013031Y012697D01*
X013067Y012625D01*
X013114Y012560D01*
X013029Y012702D02*
X012954Y012702D01*
X012993Y012860D02*
X012993Y012860D01*
X012981Y013019D02*
X013008Y013019D01*
X013080Y013177D02*
X012912Y013177D01*
X012714Y013336D02*
X013249Y013336D01*
X013503Y013336D02*
X013503Y013336D01*
X013503Y013177D02*
X013503Y013177D01*
X013503Y013019D02*
X013503Y013019D01*
X013503Y012893D02*
X013503Y012893D01*
X013503Y012893D01*
X014013Y012893D01*
X014013Y012852D01*
X014001Y012773D01*
X013976Y012697D01*
X013939Y012625D01*
X013892Y012560D01*
X013836Y012504D01*
X013771Y012456D01*
X013699Y012420D01*
X013623Y012395D01*
X013543Y012383D01*
X013503Y012383D01*
X013503Y012893D01*
X013503Y012860D02*
X013503Y012860D01*
X013503Y012702D02*
X013503Y012702D01*
X013503Y012543D02*
X013503Y012543D01*
X013503Y012385D02*
X013503Y012385D01*
X013451Y012385D02*
X002823Y012385D01*
X002823Y012543D02*
X006160Y012543D01*
X006226Y012477D02*
X006088Y012615D01*
X006013Y012795D01*
X006013Y012990D01*
X006088Y013170D01*
X006226Y013308D01*
X006406Y013383D01*
X006601Y013383D01*
X006781Y013308D01*
X006919Y013170D01*
X006993Y012990D01*
X006993Y012795D01*
X006919Y012615D01*
X006781Y012477D01*
X006601Y012403D01*
X006406Y012403D01*
X006226Y012477D01*
X006052Y012702D02*
X002823Y012702D01*
X002823Y012860D02*
X006013Y012860D01*
X006025Y013019D02*
X002823Y013019D01*
X002823Y013177D02*
X006095Y013177D01*
X006292Y013336D02*
X002823Y013336D01*
X002823Y013494D02*
X011770Y013494D01*
X011929Y013653D02*
X002823Y013653D01*
X002823Y013811D02*
X012087Y013811D01*
X012246Y013970D02*
X002823Y013970D01*
X002823Y014128D02*
X012404Y014128D01*
X012563Y014287D02*
X002823Y014287D01*
X002823Y014445D02*
X012721Y014445D01*
X012880Y014604D02*
X002823Y014604D01*
X002823Y014762D02*
X007750Y014762D01*
X007807Y014705D02*
X007528Y014983D01*
X007528Y015377D01*
X007807Y015655D01*
X008200Y015655D01*
X008478Y015377D01*
X008478Y014983D01*
X008200Y014705D01*
X007807Y014705D01*
X007591Y014921D02*
X002823Y014921D01*
X002823Y015079D02*
X007528Y015079D01*
X007528Y015238D02*
X002823Y015238D01*
X002823Y015396D02*
X007548Y015396D01*
X007706Y015555D02*
X002823Y015555D01*
X002823Y015713D02*
X014653Y015713D01*
X014653Y015568D02*
X014723Y015399D01*
X014853Y015270D01*
X015022Y015200D01*
X015205Y015200D01*
X015374Y015270D01*
X015503Y015399D01*
X015573Y015568D01*
X015573Y016351D01*
X015503Y016521D01*
X015374Y016650D01*
X015205Y016720D01*
X015022Y016720D01*
X014853Y016650D01*
X014723Y016521D01*
X014653Y016351D01*
X014653Y015568D01*
X014659Y015555D02*
X008301Y015555D01*
X008459Y015396D02*
X014727Y015396D01*
X014931Y015238D02*
X008478Y015238D01*
X008478Y015079D02*
X013355Y015079D01*
X013197Y014921D02*
X008416Y014921D01*
X008257Y014762D02*
X013038Y014762D01*
X013474Y014604D02*
X024539Y014604D01*
X024486Y014762D02*
X021132Y014762D01*
X021291Y014921D02*
X024486Y014921D01*
X024486Y015079D02*
X021449Y015079D01*
X021608Y015238D02*
X024486Y015238D01*
X024578Y015396D02*
X021766Y015396D01*
X021489Y015713D02*
X017373Y015713D01*
X017373Y015622D02*
X017373Y015940D01*
X016913Y015940D01*
X016913Y015180D01*
X016931Y015180D01*
X017006Y015192D01*
X017078Y015215D01*
X017145Y015249D01*
X017206Y015294D01*
X017259Y015347D01*
X017304Y015408D01*
X017338Y015476D01*
X017361Y015548D01*
X017373Y015622D01*
X017363Y015555D02*
X021331Y015555D01*
X021172Y015396D02*
X017295Y015396D01*
X017121Y015238D02*
X021014Y015238D01*
X021648Y015872D02*
X017373Y015872D01*
X017373Y015980D02*
X017373Y016298D01*
X017361Y016372D01*
X017338Y016444D01*
X017304Y016512D01*
X017259Y016573D01*
X017206Y016626D01*
X017145Y016671D01*
X017078Y016705D01*
X017006Y016728D01*
X016931Y016740D01*
X016913Y016740D01*
X016913Y015980D01*
X016873Y015980D01*
X016873Y015940D01*
X016413Y015940D01*
X016413Y015622D01*
X016425Y015548D01*
X016448Y015476D01*
X016483Y015408D01*
X016527Y015347D01*
X016581Y015294D01*
X016642Y015249D01*
X016709Y015215D01*
X016781Y015192D01*
X016855Y015180D01*
X016873Y015180D01*
X016873Y015940D01*
X016913Y015940D01*
X016913Y015980D01*
X017373Y015980D01*
X017373Y016030D02*
X021806Y016030D01*
X021965Y016189D02*
X017373Y016189D01*
X017365Y016347D02*
X022123Y016347D01*
X022282Y016506D02*
X017307Y016506D01*
X017154Y016664D02*
X022440Y016664D01*
X022876Y016506D02*
X024506Y016506D01*
X024347Y016664D02*
X023034Y016664D01*
X023193Y016823D02*
X024328Y016823D01*
X024328Y016981D02*
X023351Y016981D01*
X023510Y017140D02*
X024391Y017140D01*
X024550Y017298D02*
X023668Y017298D01*
X022508Y017932D02*
X019781Y017932D01*
X019793Y018091D02*
X022667Y018091D01*
X022825Y018249D02*
X019715Y018249D01*
X019678Y017774D02*
X022350Y017774D01*
X022984Y018408D02*
X016825Y018408D01*
X016923Y018566D02*
X023142Y018566D01*
X023301Y018725D02*
X016923Y018725D01*
X016894Y018883D02*
X023459Y018883D01*
X016913Y016664D02*
X016873Y016664D01*
X016873Y016740D02*
X016855Y016740D01*
X016781Y016728D01*
X016709Y016705D01*
X016642Y016671D01*
X016581Y016626D01*
X016527Y016573D01*
X016483Y016512D01*
X016448Y016444D01*
X016425Y016372D01*
X016413Y016298D01*
X016413Y015980D01*
X016873Y015980D01*
X016873Y016740D01*
X016873Y016506D02*
X016913Y016506D01*
X016913Y016347D02*
X016873Y016347D01*
X016873Y016189D02*
X016913Y016189D01*
X016913Y016030D02*
X016873Y016030D01*
X016873Y015872D02*
X016913Y015872D01*
X016913Y015713D02*
X016873Y015713D01*
X016873Y015555D02*
X016913Y015555D01*
X016913Y015396D02*
X016873Y015396D01*
X016873Y015238D02*
X016913Y015238D01*
X016665Y015238D02*
X015295Y015238D01*
X015500Y015396D02*
X016492Y015396D01*
X016424Y015555D02*
X015567Y015555D01*
X015573Y015713D02*
X016413Y015713D01*
X016413Y015872D02*
X015573Y015872D01*
X015573Y016030D02*
X016413Y016030D01*
X016413Y016189D02*
X015573Y016189D01*
X015573Y016347D02*
X016421Y016347D01*
X016480Y016506D02*
X015509Y016506D01*
X015340Y016664D02*
X016633Y016664D01*
X014887Y016664D02*
X002823Y016664D01*
X002823Y016506D02*
X014717Y016506D01*
X014653Y016347D02*
X002823Y016347D01*
X002823Y016189D02*
X014653Y016189D01*
X014653Y016030D02*
X002823Y016030D01*
X002823Y015872D02*
X014653Y015872D01*
X015494Y013970D02*
X016496Y013970D01*
X016425Y013811D02*
X015565Y013811D01*
X015573Y013653D02*
X016413Y013653D01*
X016413Y013494D02*
X015573Y013494D01*
X015573Y013336D02*
X016413Y013336D01*
X016413Y013177D02*
X015573Y013177D01*
X015573Y013019D02*
X016420Y013019D01*
X016477Y012860D02*
X015512Y012860D01*
X015353Y012702D02*
X016625Y012702D01*
X016873Y012702D02*
X016913Y012702D01*
X016913Y012860D02*
X016873Y012860D01*
X016873Y013019D02*
X016913Y013019D01*
X016913Y013177D02*
X016873Y013177D01*
X016873Y013336D02*
X016913Y013336D01*
X016913Y013494D02*
X016873Y013494D01*
X016873Y013653D02*
X016913Y013653D01*
X016913Y013811D02*
X016873Y013811D01*
X016873Y013970D02*
X016913Y013970D01*
X017291Y013970D02*
X024466Y013970D01*
X024466Y013811D02*
X017362Y013811D01*
X017373Y013653D02*
X024478Y013653D01*
X024580Y013397D02*
X024486Y013304D01*
X024486Y013190D01*
X024352Y013190D01*
X024256Y013150D01*
X024183Y013077D01*
X019426Y008320D01*
X019386Y008320D01*
X019261Y008268D01*
X019165Y008173D01*
X019113Y008048D01*
X019113Y007912D01*
X019165Y007787D01*
X019261Y007692D01*
X019386Y007640D01*
X019521Y007640D01*
X019646Y007692D01*
X019742Y007787D01*
X019793Y007912D01*
X019793Y007952D01*
X024492Y012651D01*
X024580Y012563D01*
X025227Y012563D01*
X025321Y012656D01*
X025321Y013304D01*
X025227Y013397D01*
X024580Y013397D01*
X024518Y013336D02*
X017373Y013336D01*
X017373Y013494D02*
X027183Y013494D01*
X027183Y013336D02*
X025289Y013336D01*
X025321Y013177D02*
X027183Y013177D01*
X027183Y013019D02*
X025321Y013019D01*
X025321Y012860D02*
X027183Y012860D01*
X027183Y012702D02*
X025321Y012702D01*
X025227Y012397D02*
X024580Y012397D01*
X024486Y012304D01*
X024486Y011656D01*
X024580Y011563D01*
X025227Y011563D01*
X025321Y011656D01*
X025321Y011820D01*
X026290Y011820D01*
X026413Y011943D01*
X026460Y011990D01*
X026571Y011990D01*
X026696Y012042D01*
X026792Y012137D01*
X026843Y012262D01*
X026843Y012398D01*
X026792Y012523D01*
X026696Y012618D01*
X026571Y012670D01*
X026436Y012670D01*
X026311Y012618D01*
X026215Y012523D01*
X026163Y012398D01*
X026163Y012287D01*
X026116Y012240D01*
X025321Y012240D01*
X025321Y012304D01*
X025227Y012397D01*
X025240Y012385D02*
X026163Y012385D01*
X026235Y012543D02*
X024384Y012543D01*
X024225Y012385D02*
X024567Y012385D01*
X024486Y012226D02*
X024067Y012226D01*
X023908Y012068D02*
X024486Y012068D01*
X024486Y011909D02*
X023750Y011909D01*
X023591Y011751D02*
X024486Y011751D01*
X024550Y011592D02*
X023433Y011592D01*
X023274Y011434D02*
X027183Y011434D01*
X027183Y011592D02*
X025257Y011592D01*
X025321Y011751D02*
X027183Y011751D01*
X027183Y011909D02*
X026379Y011909D01*
X026722Y012068D02*
X027183Y012068D01*
X027183Y012226D02*
X026828Y012226D01*
X026843Y012385D02*
X027183Y012385D01*
X027183Y012543D02*
X026771Y012543D01*
X027183Y013653D02*
X025328Y013653D01*
X025341Y013699D01*
X025341Y013980D01*
X025341Y014261D01*
X025328Y014307D01*
X025305Y014348D01*
X025271Y014382D01*
X025230Y014405D01*
X025184Y014417D01*
X024903Y014417D01*
X024903Y013980D01*
X024903Y013980D01*
X024903Y013980D01*
X024903Y013543D01*
X025184Y013543D01*
X025230Y013555D01*
X025271Y013578D01*
X025305Y013612D01*
X025328Y013653D01*
X025341Y013811D02*
X027183Y013811D01*
X027183Y013970D02*
X025341Y013970D01*
X025341Y013980D02*
X024903Y013980D01*
X025341Y013980D01*
X025341Y014128D02*
X027183Y014128D01*
X027183Y014287D02*
X025334Y014287D01*
X024903Y014287D02*
X024903Y014287D01*
X024903Y014128D02*
X024903Y014128D01*
X024903Y013980D02*
X024903Y013980D01*
X024903Y013970D02*
X024903Y013970D01*
X024903Y013811D02*
X024903Y013811D01*
X024903Y013653D02*
X024903Y013653D01*
X024320Y013177D02*
X017373Y013177D01*
X017366Y013019D02*
X024124Y013019D01*
X023966Y012860D02*
X017310Y012860D01*
X017161Y012702D02*
X023807Y012702D01*
X023649Y012543D02*
X013875Y012543D01*
X013977Y012702D02*
X014873Y012702D01*
X014715Y012860D02*
X014013Y012860D01*
X013999Y013019D02*
X014653Y013019D01*
X014653Y013177D02*
X013927Y013177D01*
X013757Y013336D02*
X014653Y013336D01*
X013556Y012385D02*
X023490Y012385D01*
X023332Y012226D02*
X002823Y012226D01*
X002823Y012068D02*
X023173Y012068D01*
X023015Y011909D02*
X002823Y011909D01*
X002823Y011751D02*
X022856Y011751D01*
X022698Y011592D02*
X005173Y011592D01*
X005203Y011570D02*
X005135Y011620D01*
X005060Y011658D01*
X004980Y011684D01*
X004898Y011697D01*
X004541Y011697D01*
X004541Y011202D01*
X004466Y011202D01*
X004466Y011697D01*
X004109Y011697D01*
X004026Y011684D01*
X003946Y011658D01*
X003872Y011620D01*
X003804Y011570D01*
X003745Y011511D01*
X003695Y011443D01*
X003657Y011369D01*
X003631Y011289D01*
X003618Y011206D01*
X003618Y011202D01*
X004466Y011202D01*
X004466Y011127D01*
X003618Y011127D01*
X003618Y011122D01*
X003631Y011040D01*
X003657Y010960D01*
X003695Y010885D01*
X003745Y010817D01*
X003804Y010758D01*
X003872Y010709D01*
X003946Y010671D01*
X004026Y010645D01*
X004109Y010632D01*
X004466Y010632D01*
X004466Y011127D01*
X004541Y011127D01*
X004541Y011202D01*
X005388Y011202D01*
X005388Y011206D01*
X005375Y011289D01*
X005349Y011369D01*
X005311Y011443D01*
X005262Y011511D01*
X005203Y011570D01*
X005316Y011434D02*
X022539Y011434D01*
X022381Y011275D02*
X005377Y011275D01*
X005388Y011127D02*
X004541Y011127D01*
X004541Y010632D01*
X004898Y010632D01*
X004980Y010645D01*
X005060Y010671D01*
X005135Y010709D01*
X005203Y010758D01*
X005262Y010817D01*
X005311Y010885D01*
X005349Y010960D01*
X005375Y011040D01*
X005388Y011122D01*
X005388Y011127D01*
X005387Y011117D02*
X012240Y011117D01*
X012298Y011175D02*
X012008Y010885D01*
X012008Y010680D01*
X012503Y010680D01*
X012503Y010680D01*
X012008Y010680D01*
X012008Y010475D01*
X012298Y010185D01*
X012503Y010185D01*
X012503Y010680D01*
X012503Y011175D01*
X012298Y011175D01*
X012503Y011175D02*
X012503Y010680D01*
X012503Y010680D01*
X012503Y010680D01*
X012503Y010185D01*
X012708Y010185D01*
X012998Y010475D01*
X012998Y010680D01*
X012503Y010680D01*
X012998Y010680D01*
X012998Y010885D01*
X012708Y011175D01*
X012503Y011175D01*
X012503Y011117D02*
X012503Y011117D01*
X012503Y010958D02*
X012503Y010958D01*
X012503Y010800D02*
X012503Y010800D01*
X012503Y010680D02*
X012503Y010680D01*
X012503Y010641D02*
X012503Y010641D01*
X012503Y010483D02*
X012503Y010483D01*
X012503Y010324D02*
X012503Y010324D01*
X012409Y010155D02*
X012234Y010083D01*
X012101Y009949D01*
X012028Y009774D01*
X012028Y009586D01*
X012101Y009411D01*
X012234Y009277D01*
X012409Y009205D01*
X012598Y009205D01*
X012663Y009232D01*
X013278Y008617D01*
X013392Y008570D01*
X015575Y008570D01*
X018535Y005610D01*
X018565Y005537D01*
X018661Y005442D01*
X018786Y005390D01*
X018921Y005390D01*
X019046Y005442D01*
X019142Y005537D01*
X019193Y005662D01*
X019193Y005798D01*
X019142Y005923D01*
X019046Y006018D01*
X018973Y006048D01*
X015966Y009056D01*
X020162Y009056D01*
X020320Y009215D02*
X014621Y009215D01*
X014598Y009205D02*
X014772Y009277D01*
X014906Y009411D01*
X014978Y009586D01*
X014978Y009774D01*
X014906Y009949D01*
X014772Y010083D01*
X014598Y010155D01*
X014409Y010155D01*
X014234Y010083D01*
X014101Y009949D01*
X014028Y009774D01*
X014028Y009586D01*
X014101Y009411D01*
X014234Y009277D01*
X014409Y009205D01*
X014598Y009205D01*
X014386Y009215D02*
X013557Y009215D01*
X013582Y009190D02*
X012966Y009806D01*
X012965Y009807D01*
X012906Y009949D01*
X012772Y010083D01*
X012598Y010155D01*
X012409Y010155D01*
X012159Y010007D02*
X002823Y010007D01*
X002823Y009849D02*
X012059Y009849D01*
X012028Y009690D02*
X005002Y009690D01*
X004958Y009708D02*
X004049Y009708D01*
X003860Y009630D01*
X003716Y009486D01*
X003638Y009298D01*
X003638Y009094D01*
X003716Y008905D01*
X003860Y008761D01*
X004049Y008683D01*
X004958Y008683D01*
X005146Y008761D01*
X005290Y008905D01*
X005368Y009094D01*
X005368Y009298D01*
X005290Y009486D01*
X005146Y009630D01*
X004958Y009708D01*
X005245Y009532D02*
X012051Y009532D01*
X012139Y009373D02*
X005337Y009373D01*
X005368Y009215D02*
X012386Y009215D01*
X012621Y009215D02*
X012680Y009215D01*
X012839Y009056D02*
X005353Y009056D01*
X005282Y008898D02*
X012997Y008898D01*
X013156Y008739D02*
X005092Y008739D01*
X003914Y008739D02*
X002823Y008739D01*
X002823Y008581D02*
X013366Y008581D01*
X013582Y009190D02*
X015765Y009190D01*
X015879Y009143D01*
X015966Y009056D01*
X016124Y008898D02*
X020003Y008898D01*
X019845Y008739D02*
X016283Y008739D01*
X016441Y008581D02*
X019686Y008581D01*
X019528Y008422D02*
X016600Y008422D01*
X016758Y008264D02*
X019256Y008264D01*
X019137Y008105D02*
X016917Y008105D01*
X017075Y007947D02*
X019113Y007947D01*
X019165Y007788D02*
X017234Y007788D01*
X017392Y007630D02*
X028266Y007630D01*
X028147Y007788D02*
X019742Y007788D01*
X019793Y007947D02*
X028028Y007947D01*
X027910Y008105D02*
X019946Y008105D01*
X020104Y008264D02*
X027791Y008264D01*
X027672Y008422D02*
X020263Y008422D01*
X020421Y008581D02*
X027553Y008581D01*
X027434Y008739D02*
X020580Y008739D01*
X020738Y008898D02*
X027315Y008898D01*
X027205Y009056D02*
X020897Y009056D01*
X021055Y009215D02*
X027183Y009215D01*
X027183Y009373D02*
X021214Y009373D01*
X021372Y009532D02*
X027183Y009532D01*
X027183Y009690D02*
X021531Y009690D01*
X021689Y009849D02*
X024363Y009849D01*
X024228Y009983D02*
X024507Y009705D01*
X024900Y009705D01*
X025178Y009983D01*
X025178Y010377D01*
X024900Y010655D01*
X024507Y010655D01*
X024228Y010377D01*
X024228Y009983D01*
X024228Y010007D02*
X021848Y010007D01*
X022006Y010166D02*
X024228Y010166D01*
X024228Y010324D02*
X022165Y010324D01*
X022323Y010483D02*
X024334Y010483D01*
X024493Y010641D02*
X022482Y010641D01*
X022640Y010800D02*
X027183Y010800D01*
X027183Y010958D02*
X022799Y010958D01*
X022957Y011117D02*
X027183Y011117D01*
X027183Y011275D02*
X023116Y011275D01*
X022222Y011117D02*
X014767Y011117D01*
X014708Y011175D02*
X014503Y011175D01*
X014298Y011175D01*
X014008Y010885D01*
X014008Y010680D01*
X014503Y010680D01*
X014503Y010680D01*
X014008Y010680D01*
X014008Y010475D01*
X014298Y010185D01*
X014503Y010185D01*
X014503Y010680D01*
X014503Y011175D01*
X014503Y010680D01*
X014503Y010680D01*
X014503Y010680D01*
X014503Y010185D01*
X014708Y010185D01*
X014998Y010475D01*
X014998Y010680D01*
X014503Y010680D01*
X014998Y010680D01*
X014998Y010885D01*
X014708Y011175D01*
X014503Y011117D02*
X014503Y011117D01*
X014503Y010958D02*
X014503Y010958D01*
X014503Y010800D02*
X014503Y010800D01*
X014503Y010680D02*
X014503Y010680D01*
X014503Y010641D02*
X014503Y010641D01*
X014503Y010483D02*
X014503Y010483D01*
X014503Y010324D02*
X014503Y010324D01*
X014159Y010324D02*
X012847Y010324D01*
X012998Y010483D02*
X014008Y010483D01*
X014008Y010641D02*
X012998Y010641D01*
X012998Y010800D02*
X014008Y010800D01*
X014081Y010958D02*
X012925Y010958D01*
X012767Y011117D02*
X014240Y011117D01*
X014925Y010958D02*
X022064Y010958D01*
X021905Y010800D02*
X014998Y010800D01*
X014998Y010641D02*
X021747Y010641D01*
X021588Y010483D02*
X014998Y010483D01*
X014847Y010324D02*
X021430Y010324D01*
X021271Y010166D02*
X002823Y010166D01*
X002823Y010324D02*
X012159Y010324D01*
X012008Y010483D02*
X002823Y010483D01*
X002823Y010641D02*
X004050Y010641D01*
X003762Y010800D02*
X002823Y010800D01*
X002823Y010958D02*
X003658Y010958D01*
X003619Y011117D02*
X002823Y011117D01*
X002823Y011275D02*
X003629Y011275D01*
X003690Y011434D02*
X002823Y011434D01*
X002823Y011592D02*
X003834Y011592D01*
X004466Y011592D02*
X004541Y011592D01*
X004541Y011434D02*
X004466Y011434D01*
X004466Y011275D02*
X004541Y011275D01*
X004541Y011117D02*
X004466Y011117D01*
X004466Y010958D02*
X004541Y010958D01*
X004541Y010800D02*
X004466Y010800D01*
X004466Y010641D02*
X004541Y010641D01*
X004956Y010641D02*
X012008Y010641D01*
X012008Y010800D02*
X005244Y010800D01*
X005348Y010958D02*
X012081Y010958D01*
X012848Y010007D02*
X014159Y010007D01*
X014059Y009849D02*
X012948Y009849D01*
X013082Y009690D02*
X014028Y009690D01*
X014051Y009532D02*
X013240Y009532D01*
X013399Y009373D02*
X014139Y009373D01*
X014868Y009373D02*
X020479Y009373D01*
X020637Y009532D02*
X014956Y009532D01*
X014978Y009690D02*
X020796Y009690D01*
X020954Y009849D02*
X014948Y009849D01*
X014848Y010007D02*
X021113Y010007D01*
X024914Y010641D02*
X026493Y010641D01*
X026507Y010655D02*
X026228Y010377D01*
X026228Y009983D01*
X026507Y009705D01*
X026900Y009705D01*
X027178Y009983D01*
X027178Y010377D01*
X026900Y010655D01*
X026507Y010655D01*
X026334Y010483D02*
X025073Y010483D01*
X025178Y010324D02*
X026228Y010324D01*
X026228Y010166D02*
X025178Y010166D01*
X025178Y010007D02*
X026228Y010007D01*
X026363Y009849D02*
X025044Y009849D01*
X027044Y009849D02*
X027183Y009849D01*
X027178Y010007D02*
X027183Y010007D01*
X027178Y010166D02*
X027183Y010166D01*
X027178Y010324D02*
X027183Y010324D01*
X027183Y010483D02*
X027073Y010483D01*
X027183Y010641D02*
X026914Y010641D01*
X026137Y007377D02*
X026079Y007384D01*
X026079Y006764D01*
X025919Y006764D01*
X025919Y006604D01*
X025299Y006604D01*
X025306Y006546D01*
X025330Y006457D01*
X025366Y006371D01*
X025412Y006291D01*
X025468Y006218D01*
X025534Y006153D01*
X025607Y006096D01*
X025687Y006050D01*
X025772Y006015D01*
X025862Y005991D01*
X025919Y005983D01*
X025919Y006604D01*
X026079Y006604D01*
X026079Y005983D01*
X026137Y005991D01*
X026226Y006015D01*
X026312Y006050D01*
X026392Y006096D01*
X026465Y006153D01*
X026531Y006218D01*
X026587Y006291D01*
X026633Y006371D01*
X026668Y006457D01*
X026692Y006546D01*
X026700Y006604D01*
X026079Y006604D01*
X026079Y006764D01*
X026700Y006764D01*
X026692Y006822D01*
X026668Y006911D01*
X026633Y006996D01*
X026587Y007076D01*
X026531Y007150D01*
X026465Y007215D01*
X026392Y007271D01*
X026312Y007318D01*
X026226Y007353D01*
X026137Y007377D01*
X026079Y007313D02*
X025919Y007313D01*
X025919Y007384D02*
X025862Y007377D01*
X025772Y007353D01*
X025687Y007318D01*
X025607Y007271D01*
X025534Y007215D01*
X025468Y007150D01*
X025412Y007076D01*
X025366Y006996D01*
X025330Y006911D01*
X025306Y006822D01*
X025299Y006764D01*
X025919Y006764D01*
X025919Y007384D01*
X025919Y007154D02*
X026079Y007154D01*
X026079Y006996D02*
X025919Y006996D01*
X025919Y006837D02*
X026079Y006837D01*
X026079Y006679D02*
X027927Y006679D01*
X027927Y006764D02*
X027307Y006764D01*
X027314Y006822D01*
X027338Y006911D01*
X027374Y006996D01*
X027420Y007076D01*
X027476Y007150D01*
X027541Y007215D01*
X027615Y007271D01*
X027695Y007318D01*
X027780Y007353D01*
X027869Y007377D01*
X027927Y007384D01*
X027927Y006764D01*
X027927Y006837D02*
X028087Y006837D01*
X028087Y006996D02*
X027927Y006996D01*
X027927Y007154D02*
X028087Y007154D01*
X028087Y007313D02*
X027927Y007313D01*
X027686Y007313D02*
X026321Y007313D01*
X026526Y007154D02*
X027480Y007154D01*
X027373Y006996D02*
X026633Y006996D01*
X026688Y006837D02*
X027318Y006837D01*
X027321Y006520D02*
X026685Y006520D01*
X026627Y006362D02*
X027379Y006362D01*
X027491Y006203D02*
X027139Y006203D01*
X027110Y006215D02*
X026897Y006215D01*
X026700Y006134D01*
X026550Y005983D01*
X026468Y005786D01*
X026468Y005574D01*
X026550Y005377D01*
X026700Y005226D01*
X026897Y005145D01*
X027110Y005145D01*
X027306Y005226D01*
X027457Y005377D01*
X027538Y005574D01*
X027538Y005786D01*
X027457Y005983D01*
X027306Y006134D01*
X027110Y006215D01*
X026868Y006203D02*
X026516Y006203D01*
X026611Y006045D02*
X026298Y006045D01*
X026079Y006045D02*
X025919Y006045D01*
X025919Y006203D02*
X026079Y006203D01*
X026079Y006362D02*
X025919Y006362D01*
X025919Y006520D02*
X026079Y006520D01*
X025919Y006679D02*
X018343Y006679D01*
X018185Y006837D02*
X025311Y006837D01*
X025365Y006996D02*
X018026Y006996D01*
X017868Y007154D02*
X025472Y007154D01*
X025678Y007313D02*
X017709Y007313D01*
X017551Y007471D02*
X028385Y007471D01*
X028328Y007313D02*
X028504Y007313D01*
X028534Y007154D02*
X028623Y007154D01*
X028641Y006996D02*
X028683Y006996D01*
X028087Y006520D02*
X027927Y006520D01*
X027927Y006362D02*
X028087Y006362D01*
X028087Y006203D02*
X027927Y006203D01*
X027927Y006045D02*
X028087Y006045D01*
X028306Y006045D02*
X028683Y006045D01*
X028683Y006203D02*
X028523Y006203D01*
X028635Y006362D02*
X028683Y006362D01*
X028683Y005886D02*
X027497Y005886D01*
X027538Y005728D02*
X028683Y005728D01*
X028683Y005569D02*
X027536Y005569D01*
X027471Y005411D02*
X028683Y005411D01*
X028683Y005252D02*
X028415Y005252D01*
X028576Y005094D02*
X028683Y005094D01*
X028683Y004935D02*
X028663Y004935D01*
X028087Y004935D02*
X027927Y004935D01*
X027927Y004777D02*
X028087Y004777D01*
X027927Y004756D02*
X027927Y005377D01*
X027869Y005369D01*
X027780Y005345D01*
X027695Y005310D01*
X027615Y005264D01*
X027541Y005207D01*
X027476Y005142D01*
X027420Y005069D01*
X027374Y004989D01*
X027338Y004903D01*
X027314Y004814D01*
X027307Y004756D01*
X027927Y004756D01*
X027927Y004618D02*
X026079Y004618D01*
X026079Y004596D02*
X026079Y004756D01*
X025919Y004756D01*
X025919Y004596D01*
X025299Y004596D01*
X025306Y004538D01*
X025330Y004449D01*
X025366Y004364D01*
X025412Y004284D01*
X025468Y004210D01*
X025534Y004145D01*
X025607Y004089D01*
X025687Y004042D01*
X025772Y004007D01*
X025862Y003983D01*
X025919Y003976D01*
X025919Y004596D01*
X026079Y004596D01*
X026079Y003976D01*
X026137Y003983D01*
X026226Y004007D01*
X026312Y004042D01*
X026392Y004089D01*
X026465Y004145D01*
X026531Y004210D01*
X026587Y004284D01*
X026633Y004364D01*
X026668Y004449D01*
X026692Y004538D01*
X026700Y004596D01*
X026079Y004596D01*
X026079Y004460D02*
X025919Y004460D01*
X025919Y004618D02*
X025283Y004618D01*
X025321Y004656D02*
X025321Y004756D01*
X025919Y004756D01*
X025919Y005377D01*
X025862Y005369D01*
X025772Y005345D01*
X025687Y005310D01*
X025607Y005264D01*
X025534Y005207D01*
X025468Y005142D01*
X025412Y005069D01*
X025366Y004989D01*
X025330Y004903D01*
X025321Y004867D01*
X025321Y005304D01*
X025227Y005397D01*
X024580Y005397D01*
X024486Y005304D01*
X024486Y004656D01*
X024580Y004563D01*
X025227Y004563D01*
X025321Y004656D01*
X025328Y004460D02*
X016163Y004460D01*
X016163Y004618D02*
X024524Y004618D01*
X024486Y004777D02*
X016163Y004777D01*
X016163Y004935D02*
X024486Y004935D01*
X024486Y005094D02*
X016163Y005094D01*
X016163Y005252D02*
X024486Y005252D01*
X024576Y005555D02*
X024622Y005543D01*
X024903Y005543D01*
X024903Y005980D01*
X024466Y005980D01*
X024466Y005699D01*
X024478Y005653D01*
X024502Y005612D01*
X024535Y005578D01*
X024576Y005555D01*
X024552Y005569D02*
X019155Y005569D01*
X019193Y005728D02*
X024466Y005728D01*
X024466Y005886D02*
X019157Y005886D01*
X018982Y006045D02*
X024466Y006045D01*
X024466Y005980D02*
X024466Y006261D01*
X024478Y006307D01*
X024502Y006348D01*
X024535Y006382D01*
X024576Y006405D01*
X024622Y006417D01*
X024903Y006417D01*
X024903Y005980D01*
X024903Y005980D01*
X024466Y005980D01*
X024903Y005980D02*
X024903Y005980D01*
X024903Y005980D01*
X024903Y006417D01*
X025184Y006417D01*
X025230Y006405D01*
X025271Y006382D01*
X025305Y006348D01*
X025328Y006307D01*
X025341Y006261D01*
X025341Y005980D01*
X024903Y005980D01*
X024903Y005543D01*
X025184Y005543D01*
X025230Y005555D01*
X025271Y005578D01*
X025305Y005612D01*
X025328Y005653D01*
X025341Y005699D01*
X025341Y005980D01*
X024903Y005980D01*
X024903Y005980D01*
X024903Y006045D02*
X024903Y006045D01*
X024903Y006203D02*
X024903Y006203D01*
X024903Y006362D02*
X024903Y006362D01*
X024515Y006362D02*
X018660Y006362D01*
X018502Y006520D02*
X025313Y006520D01*
X025291Y006362D02*
X025371Y006362D01*
X025341Y006203D02*
X025483Y006203D01*
X025341Y006045D02*
X025701Y006045D01*
X025341Y005886D02*
X026510Y005886D01*
X026468Y005728D02*
X025341Y005728D01*
X025255Y005569D02*
X026470Y005569D01*
X026536Y005411D02*
X018970Y005411D01*
X018736Y005411D02*
X016163Y005411D01*
X016163Y005569D02*
X018552Y005569D01*
X018417Y005728D02*
X016163Y005728D01*
X016163Y005886D02*
X018259Y005886D01*
X018100Y006045D02*
X016163Y006045D01*
X016163Y006203D02*
X017942Y006203D01*
X017783Y006362D02*
X016163Y006362D01*
X016163Y006520D02*
X017625Y006520D01*
X017466Y006679D02*
X016163Y006679D01*
X016163Y006837D02*
X017308Y006837D01*
X017149Y006996D02*
X016163Y006996D01*
X016163Y007154D02*
X016991Y007154D01*
X016832Y007313D02*
X016163Y007313D01*
X016163Y007471D02*
X016674Y007471D01*
X016515Y007630D02*
X016163Y007630D01*
X016163Y007746D02*
X016070Y007840D01*
X010937Y007840D01*
X010843Y007746D01*
X010843Y003614D01*
X010937Y003520D01*
X015414Y003520D01*
X015363Y003398D01*
X015363Y003262D01*
X015381Y003220D01*
X015336Y003220D01*
X015211Y003168D01*
X015115Y003073D01*
X015063Y002948D01*
X015063Y002812D01*
X015115Y002687D01*
X015211Y002592D01*
X015336Y002540D01*
X015446Y002540D01*
X015943Y002043D01*
X016066Y001920D01*
X021166Y001920D01*
X021630Y001456D01*
X021554Y001380D01*
X021533Y001330D01*
X021533Y001385D01*
X021453Y001580D01*
X021303Y001729D01*
X021109Y001810D01*
X020898Y001810D01*
X020703Y001729D01*
X020554Y001580D01*
X020473Y001385D01*
X020473Y001175D01*
X020554Y000980D01*
X020703Y000831D01*
X020898Y000750D01*
X021109Y000750D01*
X021303Y000831D01*
X021453Y000980D01*
X021473Y001030D01*
X021473Y000975D01*
X021554Y000780D01*
X021703Y000631D01*
X021898Y000550D01*
X022109Y000550D01*
X022303Y000631D01*
X022453Y000780D01*
X022533Y000975D01*
X022533Y001030D01*
X022554Y000980D01*
X022703Y000831D01*
X022898Y000750D01*
X023109Y000750D01*
X023303Y000831D01*
X023453Y000980D01*
X023473Y001030D01*
X023473Y000975D01*
X023554Y000780D01*
X023703Y000631D01*
X023898Y000550D01*
X024109Y000550D01*
X024303Y000631D01*
X024453Y000780D01*
X024533Y000975D01*
X024533Y001030D01*
X024554Y000980D01*
X024703Y000831D01*
X024898Y000750D01*
X025109Y000750D01*
X025303Y000831D01*
X025453Y000980D01*
X025473Y001030D01*
X025473Y000975D01*
X025554Y000780D01*
X025703Y000631D01*
X025898Y000550D01*
X026109Y000550D01*
X026303Y000631D01*
X026453Y000780D01*
X026533Y000975D01*
X026533Y001185D01*
X026453Y001380D01*
X026303Y001529D01*
X026109Y001610D01*
X025898Y001610D01*
X025703Y001529D01*
X025554Y001380D01*
X025533Y001330D01*
X025533Y001385D01*
X025453Y001580D01*
X025303Y001729D01*
X025109Y001810D01*
X024898Y001810D01*
X024703Y001729D01*
X024554Y001580D01*
X024473Y001385D01*
X024473Y001330D01*
X024453Y001380D01*
X024303Y001529D01*
X024109Y001610D01*
X023898Y001610D01*
X023703Y001529D01*
X023554Y001380D01*
X023533Y001330D01*
X023533Y001385D01*
X023453Y001580D01*
X023303Y001729D01*
X023109Y001810D01*
X022920Y001810D01*
X022213Y002517D01*
X022090Y002640D01*
X016690Y002640D01*
X016043Y003287D01*
X016043Y003398D01*
X015993Y003520D01*
X016070Y003520D01*
X016163Y003614D01*
X016163Y007746D01*
X016122Y007788D02*
X016357Y007788D01*
X016198Y007947D02*
X002823Y007947D01*
X002823Y008105D02*
X016040Y008105D01*
X015881Y008264D02*
X002823Y008264D01*
X002823Y008422D02*
X015723Y008422D01*
X018819Y006203D02*
X024466Y006203D01*
X024903Y005886D02*
X024903Y005886D01*
X024903Y005728D02*
X024903Y005728D01*
X024903Y005569D02*
X024903Y005569D01*
X025321Y005252D02*
X025592Y005252D01*
X025431Y005094D02*
X025321Y005094D01*
X025321Y004935D02*
X025344Y004935D01*
X025919Y004935D02*
X026079Y004935D01*
X026079Y004777D02*
X025919Y004777D01*
X026079Y004756D02*
X026079Y005377D01*
X026137Y005369D01*
X026226Y005345D01*
X026312Y005310D01*
X026392Y005264D01*
X026465Y005207D01*
X026531Y005142D01*
X026587Y005069D01*
X026633Y004989D01*
X026668Y004903D01*
X026692Y004814D01*
X026700Y004756D01*
X026079Y004756D01*
X026079Y005094D02*
X025919Y005094D01*
X025919Y005252D02*
X026079Y005252D01*
X026407Y005252D02*
X026675Y005252D01*
X026568Y005094D02*
X027439Y005094D01*
X027351Y004935D02*
X026655Y004935D01*
X026697Y004777D02*
X027309Y004777D01*
X027335Y004460D02*
X026671Y004460D01*
X026597Y004301D02*
X027410Y004301D01*
X027544Y004143D02*
X027266Y004143D01*
X027200Y004170D02*
X027564Y004019D01*
X027842Y003741D01*
X027993Y003377D01*
X027993Y002983D01*
X027842Y002619D01*
X027564Y002341D01*
X027200Y002190D01*
X026806Y002190D01*
X026443Y002341D01*
X026164Y002619D01*
X026013Y002983D01*
X026013Y003377D01*
X026164Y003741D01*
X026443Y004019D01*
X026806Y004170D01*
X027200Y004170D01*
X026740Y004143D02*
X026462Y004143D01*
X026407Y003984D02*
X026140Y003984D01*
X026079Y003984D02*
X025919Y003984D01*
X025858Y003984D02*
X025341Y003984D01*
X025341Y003980D02*
X025341Y004261D01*
X025328Y004307D01*
X025305Y004348D01*
X025271Y004382D01*
X025230Y004405D01*
X025184Y004417D01*
X024903Y004417D01*
X024622Y004417D01*
X024576Y004405D01*
X024535Y004382D01*
X024502Y004348D01*
X024478Y004307D01*
X024466Y004261D01*
X024466Y003980D01*
X024466Y003699D01*
X024478Y003653D01*
X024502Y003612D01*
X024535Y003578D01*
X024576Y003555D01*
X024622Y003543D01*
X024903Y003543D01*
X024903Y003980D01*
X024466Y003980D01*
X024903Y003980D01*
X024903Y003980D01*
X024903Y004417D01*
X024903Y003980D01*
X024903Y003980D01*
X024903Y003980D01*
X024903Y003543D01*
X025184Y003543D01*
X025230Y003555D01*
X025271Y003578D01*
X025305Y003612D01*
X025328Y003653D01*
X025341Y003699D01*
X025341Y003980D01*
X024903Y003980D01*
X024903Y003980D01*
X025341Y003980D01*
X025341Y003826D02*
X026249Y003826D01*
X026134Y003667D02*
X025332Y003667D01*
X024903Y003667D02*
X024903Y003667D01*
X024903Y003826D02*
X024903Y003826D01*
X024903Y003984D02*
X024903Y003984D01*
X024903Y004143D02*
X024903Y004143D01*
X024903Y004301D02*
X024903Y004301D01*
X024476Y004301D02*
X016163Y004301D01*
X016163Y004143D02*
X024466Y004143D01*
X024466Y003984D02*
X016163Y003984D01*
X016163Y003826D02*
X024466Y003826D01*
X024474Y003667D02*
X016163Y003667D01*
X015997Y003509D02*
X026068Y003509D01*
X026013Y003350D02*
X016043Y003350D01*
X016139Y003192D02*
X026013Y003192D01*
X026013Y003033D02*
X016297Y003033D01*
X016456Y002875D02*
X026058Y002875D01*
X026124Y002716D02*
X016614Y002716D01*
X015904Y002082D02*
X007984Y002082D01*
X007984Y001924D02*
X016063Y001924D01*
X016109Y001810D02*
X015898Y001810D01*
X015703Y001729D01*
X015554Y001580D01*
X015473Y001385D01*
X015473Y001330D01*
X015453Y001380D01*
X015303Y001529D01*
X015109Y001610D01*
X014898Y001610D01*
X014703Y001529D01*
X014554Y001380D01*
X014533Y001330D01*
X014533Y001385D01*
X014453Y001580D01*
X014303Y001729D01*
X014109Y001810D01*
X013898Y001810D01*
X013703Y001729D01*
X013554Y001580D01*
X013473Y001385D01*
X013473Y001175D01*
X013554Y000980D01*
X013703Y000831D01*
X013898Y000750D01*
X014109Y000750D01*
X014303Y000831D01*
X014453Y000980D01*
X014473Y001030D01*
X014473Y000975D01*
X014554Y000780D01*
X014703Y000631D01*
X014898Y000550D01*
X015109Y000550D01*
X015303Y000631D01*
X015453Y000780D01*
X015533Y000975D01*
X015533Y001030D01*
X015554Y000980D01*
X015703Y000831D01*
X015898Y000750D01*
X016109Y000750D01*
X016303Y000831D01*
X016453Y000980D01*
X016460Y000997D01*
X016467Y000951D01*
X016494Y000869D01*
X016533Y000792D01*
X016584Y000722D01*
X016645Y000660D01*
X016715Y000610D01*
X016792Y000570D01*
X016874Y000544D01*
X016960Y000530D01*
X016983Y000530D01*
X016983Y001060D01*
X017023Y001060D01*
X017023Y000530D01*
X017047Y000530D01*
X017132Y000544D01*
X017214Y000570D01*
X017292Y000610D01*
X017362Y000660D01*
X017423Y000722D01*
X017474Y000792D01*
X017513Y000869D01*
X017540Y000951D01*
X017544Y000977D01*
X017584Y000922D01*
X017645Y000860D01*
X017715Y000810D01*
X017792Y000770D01*
X017874Y000744D01*
X017960Y000730D01*
X017983Y000730D01*
X017983Y001260D01*
X018023Y001260D01*
X018023Y000730D01*
X018047Y000730D01*
X018132Y000744D01*
X018214Y000770D01*
X018292Y000810D01*
X018362Y000860D01*
X018423Y000922D01*
X018473Y000991D01*
X018473Y000975D01*
X018554Y000780D01*
X018703Y000631D01*
X018898Y000550D01*
X019109Y000550D01*
X019303Y000631D01*
X019453Y000780D01*
X019533Y000975D01*
X019533Y001185D01*
X019453Y001380D01*
X019303Y001529D01*
X019109Y001610D01*
X018898Y001610D01*
X018703Y001529D01*
X018554Y001380D01*
X018547Y001363D01*
X018540Y001409D01*
X018513Y001491D01*
X018474Y001568D01*
X018423Y001638D01*
X018362Y001700D01*
X018292Y001750D01*
X018214Y001790D01*
X018132Y001816D01*
X018047Y001830D01*
X018023Y001830D01*
X018023Y001300D01*
X017983Y001300D01*
X017983Y001830D01*
X017960Y001830D01*
X017874Y001816D01*
X017792Y001790D01*
X017715Y001750D01*
X017645Y001700D01*
X017584Y001638D01*
X017533Y001568D01*
X017494Y001491D01*
X017467Y001409D01*
X017463Y001383D01*
X017423Y001438D01*
X017362Y001500D01*
X017292Y001550D01*
X017214Y001590D01*
X017132Y001616D01*
X017047Y001630D01*
X017023Y001630D01*
X017023Y001100D01*
X016983Y001100D01*
X016983Y001630D01*
X016960Y001630D01*
X016874Y001616D01*
X016792Y001590D01*
X016715Y001550D01*
X016645Y001500D01*
X016584Y001438D01*
X016533Y001369D01*
X016533Y001385D01*
X016453Y001580D01*
X016303Y001729D01*
X016109Y001810D01*
X016217Y001765D02*
X017744Y001765D01*
X017983Y001765D02*
X018023Y001765D01*
X018023Y001607D02*
X017983Y001607D01*
X017983Y001448D02*
X018023Y001448D01*
X018023Y001131D02*
X017983Y001131D01*
X017983Y000973D02*
X018023Y000973D01*
X018023Y000814D02*
X017983Y000814D01*
X017709Y000814D02*
X017485Y000814D01*
X017543Y000973D02*
X017547Y000973D01*
X017355Y000656D02*
X018678Y000656D01*
X018540Y000814D02*
X018298Y000814D01*
X018460Y000973D02*
X018474Y000973D01*
X018527Y001448D02*
X018622Y001448D01*
X018446Y001607D02*
X018889Y001607D01*
X019117Y001607D02*
X020580Y001607D01*
X020499Y001448D02*
X019385Y001448D01*
X019490Y001290D02*
X020473Y001290D01*
X020491Y001131D02*
X019533Y001131D01*
X019532Y000973D02*
X020561Y000973D01*
X020743Y000814D02*
X019467Y000814D01*
X019328Y000656D02*
X021678Y000656D01*
X021540Y000814D02*
X021263Y000814D01*
X021445Y000973D02*
X021474Y000973D01*
X021507Y001448D02*
X021622Y001448D01*
X021480Y001607D02*
X021426Y001607D01*
X021321Y001765D02*
X021217Y001765D01*
X020789Y001765D02*
X018263Y001765D01*
X017561Y001607D02*
X017163Y001607D01*
X017023Y001607D02*
X016983Y001607D01*
X016844Y001607D02*
X016426Y001607D01*
X016507Y001448D02*
X016593Y001448D01*
X016983Y001448D02*
X017023Y001448D01*
X017023Y001290D02*
X016983Y001290D01*
X016983Y001131D02*
X017023Y001131D01*
X017023Y000973D02*
X016983Y000973D01*
X016983Y000814D02*
X017023Y000814D01*
X017023Y000656D02*
X016983Y000656D01*
X016652Y000656D02*
X015328Y000656D01*
X015467Y000814D02*
X015743Y000814D01*
X015561Y000973D02*
X015532Y000973D01*
X015499Y001448D02*
X015385Y001448D01*
X015580Y001607D02*
X015117Y001607D01*
X014889Y001607D02*
X014426Y001607D01*
X014507Y001448D02*
X014622Y001448D01*
X014474Y000973D02*
X014445Y000973D01*
X014540Y000814D02*
X014263Y000814D01*
X014678Y000656D02*
X002823Y000656D01*
X002823Y000814D02*
X013743Y000814D01*
X013561Y000973D02*
X002823Y000973D01*
X002823Y001131D02*
X013491Y001131D01*
X013473Y001290D02*
X002823Y001290D01*
X002823Y001448D02*
X003169Y001448D01*
X003188Y001429D02*
X003256Y001380D01*
X003330Y001342D01*
X003410Y001316D01*
X003493Y001303D01*
X003497Y001303D01*
X003497Y002150D01*
X003572Y002150D01*
X003572Y001303D01*
X003577Y001303D01*
X003659Y001316D01*
X003739Y001342D01*
X003814Y001380D01*
X003882Y001429D01*
X003941Y001488D01*
X003990Y001556D01*
X004028Y001631D01*
X004054Y001711D01*
X004067Y001793D01*
X004067Y002150D01*
X003572Y002150D01*
X003572Y002225D01*
X004067Y002225D01*
X004067Y002582D01*
X004054Y002665D01*
X004028Y002745D01*
X003990Y002819D01*
X003941Y002887D01*
X003882Y002947D01*
X003814Y002996D01*
X003739Y003034D01*
X003659Y003060D01*
X003577Y003073D01*
X003572Y003073D01*
X003572Y002225D01*
X003497Y002225D01*
X003497Y002150D01*
X003002Y002150D01*
X003002Y001793D01*
X003015Y001711D01*
X003041Y001631D01*
X003079Y001556D01*
X003129Y001488D01*
X003188Y001429D01*
X003054Y001607D02*
X002823Y001607D01*
X002823Y001765D02*
X003007Y001765D01*
X003002Y001924D02*
X002823Y001924D01*
X002823Y002082D02*
X003002Y002082D01*
X003002Y002225D02*
X003497Y002225D01*
X003497Y003073D01*
X003493Y003073D01*
X003410Y003060D01*
X003330Y003034D01*
X003256Y002996D01*
X003188Y002947D01*
X003129Y002887D01*
X003079Y002819D01*
X003041Y002745D01*
X003015Y002665D01*
X003002Y002582D01*
X003002Y002225D01*
X003002Y002241D02*
X002823Y002241D01*
X002823Y002399D02*
X003002Y002399D01*
X003002Y002558D02*
X002823Y002558D01*
X002823Y002716D02*
X003032Y002716D01*
X003119Y002875D02*
X002823Y002875D01*
X002823Y003033D02*
X003329Y003033D01*
X003497Y003033D02*
X003572Y003033D01*
X003572Y002875D02*
X003497Y002875D01*
X003497Y002716D02*
X003572Y002716D01*
X003572Y002558D02*
X003497Y002558D01*
X003497Y002399D02*
X003572Y002399D01*
X003572Y002241D02*
X003497Y002241D01*
X003497Y002082D02*
X003572Y002082D01*
X003572Y001924D02*
X003497Y001924D01*
X003497Y001765D02*
X003572Y001765D01*
X003572Y001607D02*
X003497Y001607D01*
X003497Y001448D02*
X003572Y001448D01*
X003900Y001448D02*
X005166Y001448D01*
X005213Y001401D02*
X005069Y001545D01*
X004991Y001733D01*
X004991Y002642D01*
X005069Y002831D01*
X005213Y002975D01*
X005401Y003053D01*
X005605Y003053D01*
X005794Y002975D01*
X005938Y002831D01*
X006016Y002642D01*
X006016Y001733D01*
X005938Y001545D01*
X005794Y001401D01*
X005605Y001323D01*
X005401Y001323D01*
X005213Y001401D01*
X005043Y001607D02*
X004016Y001607D01*
X004063Y001765D02*
X004991Y001765D01*
X004991Y001924D02*
X004067Y001924D01*
X004067Y002082D02*
X004991Y002082D01*
X004991Y002241D02*
X004067Y002241D01*
X004067Y002399D02*
X004991Y002399D01*
X004991Y002558D02*
X004067Y002558D01*
X004038Y002716D02*
X005021Y002716D01*
X005113Y002875D02*
X003950Y002875D01*
X003741Y003033D02*
X005353Y003033D01*
X005653Y003033D02*
X007322Y003033D01*
X007370Y003053D02*
X007181Y002975D01*
X007037Y002831D01*
X006959Y002642D01*
X006959Y001733D01*
X007037Y001545D01*
X007181Y001401D01*
X007370Y001323D01*
X007574Y001323D01*
X007762Y001401D01*
X007906Y001545D01*
X007984Y001733D01*
X007984Y002642D01*
X007906Y002831D01*
X007762Y002975D01*
X007574Y003053D01*
X007370Y003053D01*
X007622Y003033D02*
X015099Y003033D01*
X015063Y002875D02*
X007862Y002875D01*
X007954Y002716D02*
X015103Y002716D01*
X015293Y002558D02*
X007984Y002558D01*
X007984Y002399D02*
X015587Y002399D01*
X015746Y002241D02*
X007984Y002241D01*
X007984Y001765D02*
X013789Y001765D01*
X013580Y001607D02*
X007932Y001607D01*
X007809Y001448D02*
X013499Y001448D01*
X014217Y001765D02*
X015789Y001765D01*
X016445Y000973D02*
X016463Y000973D01*
X016522Y000814D02*
X016263Y000814D01*
X017413Y001448D02*
X017480Y001448D01*
X015267Y003192D02*
X002823Y003192D01*
X002823Y003350D02*
X015363Y003350D01*
X015409Y003509D02*
X002823Y003509D01*
X002823Y003667D02*
X010843Y003667D01*
X010843Y003826D02*
X002823Y003826D01*
X002823Y003984D02*
X010843Y003984D01*
X010843Y004143D02*
X002823Y004143D01*
X002823Y004301D02*
X010843Y004301D01*
X010843Y004460D02*
X002823Y004460D01*
X002823Y004618D02*
X010843Y004618D01*
X010843Y004777D02*
X005161Y004777D01*
X005146Y004761D02*
X005290Y004905D01*
X005368Y005094D01*
X005368Y005298D01*
X005290Y005486D01*
X005146Y005630D01*
X004958Y005708D01*
X004049Y005708D01*
X003860Y005630D01*
X003716Y005486D01*
X003638Y005298D01*
X003638Y005094D01*
X003716Y004905D01*
X003860Y004761D01*
X004049Y004683D01*
X004958Y004683D01*
X005146Y004761D01*
X005302Y004935D02*
X010843Y004935D01*
X010843Y005094D02*
X005368Y005094D01*
X005368Y005252D02*
X010843Y005252D01*
X010843Y005411D02*
X005322Y005411D01*
X005207Y005569D02*
X010843Y005569D01*
X010843Y005728D02*
X002823Y005728D01*
X002823Y005886D02*
X010843Y005886D01*
X010843Y006045D02*
X002823Y006045D01*
X002823Y006203D02*
X010843Y006203D01*
X010843Y006362D02*
X002823Y006362D01*
X002823Y006520D02*
X010843Y006520D01*
X010843Y006679D02*
X005022Y006679D01*
X004958Y006652D02*
X005146Y006730D01*
X005290Y006874D01*
X005368Y007062D01*
X005368Y007266D01*
X005290Y007455D01*
X005146Y007599D01*
X004958Y007677D01*
X004049Y007677D01*
X003860Y007599D01*
X003716Y007455D01*
X003638Y007266D01*
X003638Y007062D01*
X003716Y006874D01*
X003860Y006730D01*
X004049Y006652D01*
X004958Y006652D01*
X005253Y006837D02*
X010843Y006837D01*
X010843Y006996D02*
X005341Y006996D01*
X005368Y007154D02*
X010843Y007154D01*
X010843Y007313D02*
X005349Y007313D01*
X005274Y007471D02*
X010843Y007471D01*
X010843Y007630D02*
X005072Y007630D01*
X003935Y007630D02*
X002823Y007630D01*
X002823Y007788D02*
X010885Y007788D01*
X003984Y006679D02*
X002823Y006679D01*
X002823Y006837D02*
X003753Y006837D01*
X003666Y006996D02*
X002823Y006996D01*
X002823Y007154D02*
X003638Y007154D01*
X003657Y007313D02*
X002823Y007313D01*
X002823Y007471D02*
X003733Y007471D01*
X003724Y008898D02*
X002823Y008898D01*
X002823Y009056D02*
X003654Y009056D01*
X003638Y009215D02*
X002823Y009215D01*
X002823Y009373D02*
X003669Y009373D01*
X003762Y009532D02*
X002823Y009532D01*
X002823Y009690D02*
X004005Y009690D01*
X006847Y012543D02*
X007160Y012543D01*
X007226Y012477D02*
X007406Y012403D01*
X007601Y012403D01*
X007781Y012477D01*
X007919Y012615D01*
X007993Y012795D01*
X007993Y012990D01*
X007919Y013170D01*
X007781Y013308D01*
X007601Y013383D01*
X007406Y013383D01*
X007226Y013308D01*
X007088Y013170D01*
X007013Y012990D01*
X007013Y012795D01*
X007088Y012615D01*
X007226Y012477D01*
X007052Y012702D02*
X006954Y012702D01*
X006993Y012860D02*
X007013Y012860D01*
X007025Y013019D02*
X006981Y013019D01*
X006912Y013177D02*
X007095Y013177D01*
X007292Y013336D02*
X006714Y013336D01*
X007714Y013336D02*
X008292Y013336D01*
X008226Y013308D02*
X008406Y013383D01*
X008601Y013383D01*
X008781Y013308D01*
X008919Y013170D01*
X008993Y012990D01*
X008993Y012795D01*
X008919Y012615D01*
X008781Y012477D01*
X008601Y012403D01*
X008406Y012403D01*
X008226Y012477D01*
X008088Y012615D01*
X008013Y012795D01*
X008013Y012990D01*
X008088Y013170D01*
X008226Y013308D01*
X008095Y013177D02*
X007912Y013177D01*
X007981Y013019D02*
X008025Y013019D01*
X008013Y012860D02*
X007993Y012860D01*
X007954Y012702D02*
X008052Y012702D01*
X008160Y012543D02*
X007847Y012543D01*
X008847Y012543D02*
X009160Y012543D01*
X009226Y012477D02*
X009406Y012403D01*
X009601Y012403D01*
X009781Y012477D01*
X009919Y012615D01*
X009993Y012795D01*
X009993Y012990D01*
X009919Y013170D01*
X009781Y013308D01*
X009601Y013383D01*
X009406Y013383D01*
X009226Y013308D01*
X009088Y013170D01*
X009013Y012990D01*
X009013Y012795D01*
X009088Y012615D01*
X009226Y012477D01*
X009052Y012702D02*
X008954Y012702D01*
X008993Y012860D02*
X009013Y012860D01*
X009025Y013019D02*
X008981Y013019D01*
X008912Y013177D02*
X009095Y013177D01*
X009292Y013336D02*
X008714Y013336D01*
X009714Y013336D02*
X010292Y013336D01*
X010226Y013308D02*
X010088Y013170D01*
X010013Y012990D01*
X010013Y012795D01*
X010088Y012615D01*
X010226Y012477D01*
X010406Y012403D01*
X010601Y012403D01*
X010781Y012477D01*
X010919Y012615D01*
X010993Y012795D01*
X010993Y012990D01*
X010919Y013170D01*
X010781Y013308D01*
X010601Y013383D01*
X010406Y013383D01*
X010226Y013308D01*
X010095Y013177D02*
X009912Y013177D01*
X009981Y013019D02*
X010025Y013019D01*
X010013Y012860D02*
X009993Y012860D01*
X009954Y012702D02*
X010052Y012702D01*
X010160Y012543D02*
X009847Y012543D01*
X010847Y012543D02*
X011160Y012543D01*
X011052Y012702D02*
X010954Y012702D01*
X010993Y012860D02*
X011013Y012860D01*
X011025Y013019D02*
X010981Y013019D01*
X010912Y013177D02*
X011095Y013177D01*
X011292Y013336D02*
X010714Y013336D01*
X010870Y018566D02*
X011137Y018566D01*
X011043Y018725D02*
X010964Y018725D01*
X010993Y018883D02*
X011013Y018883D01*
X011035Y019042D02*
X010972Y019042D01*
X010889Y019200D02*
X011118Y019200D01*
X011348Y019359D02*
X010659Y019359D01*
X010348Y019359D02*
X009659Y019359D01*
X009889Y019200D02*
X010118Y019200D01*
X010035Y019042D02*
X009972Y019042D01*
X009993Y018883D02*
X010013Y018883D01*
X010043Y018725D02*
X009964Y018725D01*
X009870Y018566D02*
X010137Y018566D01*
X011659Y019359D02*
X012348Y019359D01*
X012118Y019200D02*
X011889Y019200D01*
X011972Y019042D02*
X012035Y019042D01*
X012013Y018883D02*
X011993Y018883D01*
X011964Y018725D02*
X012043Y018725D01*
X012137Y018566D02*
X011870Y018566D01*
X012870Y018566D02*
X013137Y018566D01*
X013043Y018725D02*
X012964Y018725D01*
X012993Y018883D02*
X013013Y018883D01*
X013035Y019042D02*
X012972Y019042D01*
X012889Y019200D02*
X013118Y019200D01*
X013348Y019359D02*
X012659Y019359D01*
X012150Y019834D02*
X011968Y019834D01*
X006118Y019200D02*
X002823Y019200D01*
X002823Y019042D02*
X006035Y019042D01*
X027395Y006045D02*
X027709Y006045D01*
X027600Y005252D02*
X027332Y005252D01*
X027927Y005252D02*
X028087Y005252D01*
X028087Y005094D02*
X027927Y005094D01*
X027927Y004460D02*
X028087Y004460D01*
X028087Y004301D02*
X027927Y004301D01*
X027927Y004143D02*
X028087Y004143D01*
X028087Y003984D02*
X027927Y003984D01*
X027866Y003984D02*
X027599Y003984D01*
X027758Y003826D02*
X028683Y003826D01*
X028683Y003984D02*
X028148Y003984D01*
X028470Y004143D02*
X028683Y004143D01*
X028683Y004301D02*
X028605Y004301D01*
X028679Y004460D02*
X028683Y004460D01*
X028683Y003667D02*
X027873Y003667D01*
X027939Y003509D02*
X028683Y003509D01*
X028683Y003350D02*
X027993Y003350D01*
X027993Y003192D02*
X028683Y003192D01*
X028683Y003033D02*
X027993Y003033D01*
X027948Y002875D02*
X028683Y002875D01*
X028683Y002716D02*
X027883Y002716D01*
X027781Y002558D02*
X028683Y002558D01*
X028683Y002399D02*
X027622Y002399D01*
X027322Y002241D02*
X028683Y002241D01*
X028683Y002082D02*
X022648Y002082D01*
X022490Y002241D02*
X026685Y002241D01*
X026384Y002399D02*
X022331Y002399D01*
X022213Y002517D02*
X022213Y002517D01*
X022173Y002558D02*
X026226Y002558D01*
X025217Y001765D02*
X028683Y001765D01*
X028683Y001607D02*
X026117Y001607D01*
X025889Y001607D02*
X025426Y001607D01*
X025507Y001448D02*
X025622Y001448D01*
X025474Y000973D02*
X025445Y000973D01*
X025540Y000814D02*
X025263Y000814D01*
X025678Y000656D02*
X024328Y000656D01*
X024467Y000814D02*
X024743Y000814D01*
X024561Y000973D02*
X024532Y000973D01*
X024499Y001448D02*
X024385Y001448D01*
X024580Y001607D02*
X024117Y001607D01*
X023889Y001607D02*
X023426Y001607D01*
X023507Y001448D02*
X023622Y001448D01*
X023474Y000973D02*
X023445Y000973D01*
X023540Y000814D02*
X023263Y000814D01*
X023678Y000656D02*
X022328Y000656D01*
X022467Y000814D02*
X022743Y000814D01*
X022561Y000973D02*
X022532Y000973D01*
X023217Y001765D02*
X024789Y001765D01*
X026385Y001448D02*
X028683Y001448D01*
X028683Y001290D02*
X026490Y001290D01*
X026533Y001131D02*
X028683Y001131D01*
X028683Y000973D02*
X026532Y000973D01*
X026467Y000814D02*
X028683Y000814D01*
X028683Y000656D02*
X026328Y000656D01*
X028683Y001924D02*
X022807Y001924D01*
X025341Y004143D02*
X025537Y004143D01*
X025402Y004301D02*
X025330Y004301D01*
X025919Y004301D02*
X026079Y004301D01*
X026079Y004143D02*
X025919Y004143D01*
X007081Y002875D02*
X005894Y002875D01*
X005985Y002716D02*
X006990Y002716D01*
X006959Y002558D02*
X006016Y002558D01*
X006016Y002399D02*
X006959Y002399D01*
X006959Y002241D02*
X006016Y002241D01*
X006016Y002082D02*
X006959Y002082D01*
X006959Y001924D02*
X006016Y001924D01*
X006016Y001765D02*
X006959Y001765D01*
X007012Y001607D02*
X005963Y001607D01*
X005841Y001448D02*
X007134Y001448D01*
X003845Y004777D02*
X002823Y004777D01*
X002823Y004935D02*
X003704Y004935D01*
X003638Y005094D02*
X002823Y005094D01*
X002823Y005252D02*
X003638Y005252D01*
X003685Y005411D02*
X002823Y005411D01*
X002823Y005569D02*
X003799Y005569D01*
D24*
X008053Y006630D03*
X015403Y002880D03*
X015703Y003330D03*
X018853Y005730D03*
X019453Y007980D03*
X026353Y011130D03*
X026503Y012330D03*
X019453Y018030D03*
D25*
X024403Y012930D02*
X024853Y012930D01*
X024903Y012980D01*
X024403Y012930D02*
X019453Y007980D01*
D26*
X018853Y005730D02*
X015703Y008880D01*
X013453Y008880D01*
X012703Y009630D01*
X012553Y009630D01*
X012503Y009680D01*
D27*
X011503Y012893D02*
X011503Y012930D01*
X013453Y014880D01*
X020953Y014880D01*
X025903Y019830D01*
X025903Y020130D01*
X026003Y020130D01*
X025003Y020130D02*
X025003Y020230D01*
X025003Y020130D02*
X022003Y017130D01*
X008053Y017130D01*
X008003Y017180D01*
X016003Y017930D02*
X016003Y018030D01*
X019453Y018030D01*
X026203Y012030D02*
X026503Y012330D01*
X026203Y012030D02*
X025003Y012030D01*
X024903Y011980D01*
X015703Y003330D02*
X016603Y002430D01*
X022003Y002430D01*
X023053Y001380D01*
X023003Y001280D01*
X022003Y001380D02*
X022003Y001080D01*
X022003Y001380D02*
X021253Y002130D01*
X016153Y002130D01*
X015403Y002880D01*
D28*
X027003Y003180D03*
X007003Y020180D03*
D29*
X011503Y007180D03*
X011503Y006180D03*
X011503Y005180D03*
X012503Y005180D03*
X013503Y005180D03*
X014503Y005180D03*
X015503Y005180D03*
X015503Y006180D03*
X015503Y007180D03*
X015503Y004180D03*
X014503Y004180D03*
X013503Y004180D03*
X012503Y004180D03*
X011503Y004180D03*
M02*
