%
M48
M72
T01C0.0200
T02C0.0236
T03C0.0315
T04C0.0320
T05C0.0400
T06C0.0470
T07C0.0500
T08C0.0700
T09C0.1260
%
T01
X8053Y6630
X26353Y11130
X19453Y7980
X18853Y5730
X19453Y18030
X15403Y2880
X15703Y3330
X26503Y12330
T02
X11503Y7180
X11503Y6180
X11503Y5180
X11503Y4180
X12503Y4180
X13503Y4180
X14503Y4180
X15503Y4180
X15503Y5180
X15503Y6180
X15503Y7180
X12503Y5180
X14503Y5180
X13503Y5180
T03
X24903Y3980
X24903Y4980
X24903Y5980
X24903Y11980
X24903Y12980
X24903Y13980
X24903Y14980
X13503Y12893
X12503Y12893
X11503Y12893
X10503Y12893
X9503Y12893
X8503Y12893
X7503Y12893
X6503Y12893
X13503Y18893
X12503Y18893
X11503Y18893
X10503Y18893
X9503Y18893
X8503Y18893
X7503Y18893
X6503Y18893
T04
X14503Y10680
X14503Y9680
X12503Y10680
X12503Y9680
X16503Y18680
X16003Y17930
X15503Y18680
X26803Y16880
X24803Y16880
X8003Y17180
X8003Y15180
X26703Y10180
X24703Y10180
T05
X16893Y15960
X15113Y15960
X16893Y13400
X15113Y13400
X19003Y1080
X18003Y1280
X17003Y1080
X16003Y1280
X15003Y1080
X14003Y1280
X26003Y1080
X25003Y1280
X24003Y1080
X23003Y1280
X22003Y1080
X21003Y1280
X10503Y20230
X11503Y20130
X12503Y20230
X13503Y20130
X14503Y20230
X15503Y20130
X16503Y20230
X17503Y20130
X19003Y20230
X20003Y20130
X21003Y20230
X22003Y20130
X23003Y20230
X24003Y20130
X25003Y20230
X26003Y20130
X3503Y20180
X4503Y20180
T06
X4503Y9196
X4503Y11164
X7472Y2188
X5503Y2188
X3535Y2188
X4503Y5196
X4503Y7164
T07
X27003Y5680
T08
X25999Y6684
X28007Y6684
X28007Y4676
X25999Y4676
T09
X27003Y3180
X7003Y20180
M30
